<?xml version="1.0" encoding="UTF-8" standalone="no"?>
<!-- Created with Inkscape (http://www.inkscape.org/) -->

<svg
   xmlns:dc="http://purl.org/dc/elements/1.1/"
   xmlns:cc="http://creativecommons.org/ns#"
   xmlns:rdf="http://www.w3.org/1999/02/22-rdf-syntax-ns#"
   xmlns:svg="http://www.w3.org/2000/svg"
   xmlns="http://www.w3.org/2000/svg"
   xmlns:sodipodi="http://sodipodi.sourceforge.net/DTD/sodipodi-0.dtd"
   xmlns:inkscape="http://www.inkscape.org/namespaces/inkscape"
   width="46.062992"
   height="46.062992"
   id="svg2"
   version="1.1"
   inkscape:version="0.48.5 r10040"
   sodipodi:docname="stencil2.svg">
  <defs
     id="defs4" />
  <sodipodi:namedview
     id="base"
     pagecolor="#ffffff"
     bordercolor="#666666"
     borderopacity="1.0"
     inkscape:pageopacity="0.0"
     inkscape:pageshadow="2"
     inkscape:zoom="11.313708"
     inkscape:cx="18.404419"
     inkscape:cy="26.75157"
     inkscape:document-units="px"
     inkscape:current-layer="layer1"
     showgrid="true"
     inkscape:window-width="1440"
     inkscape:window-height="878"
     inkscape:window-x="1440"
     inkscape:window-y="0"
     inkscape:window-maximized="1"
     fit-margin-top="0"
     fit-margin-left="0"
     fit-margin-right="0"
     fit-margin-bottom="0"
     units="mm"
     showguides="true">
    <inkscape:grid
       type="xygrid"
       id="grid3951"
       empspacing="5"
       visible="true"
       enabled="true"
       snapvisiblegridlinesonly="true"
       units="mm"
       spacingx="1mm"
       spacingy="1mm"
       dotted="false"
       originx="1.063352e-06mm"
       originy="-8.5395096e-07mm" />
  </sodipodi:namedview>
  <metadata
     id="metadata7">
    <rdf:RDF>
      <cc:Work
         rdf:about="">
        <dc:format>image/svg+xml</dc:format>
        <dc:type
           rdf:resource="http://purl.org/dc/dcmitype/StillImage" />
        <dc:title></dc:title>
      </cc:Work>
    </rdf:RDF>
  </metadata>
  <g
     inkscape:label="Layer 1"
     inkscape:groupmode="layer"
     id="layer1"
     transform="translate(-122.6401,-553.17754)">
    <path
       sodipodi:type="arc"
       style="fill:#000000;fill-opacity:1;stroke:none"
       id="path3137"
       sodipodi:cx="355.5737"
       sodipodi:cy="492.9902"
       sodipodi:rx="84.34774"
       sodipodi:ry="86.620583"
       d="m 439.92144,492.9902 c 0,47.83923 -37.76377,86.62059 -84.34774,86.62059 -46.58397,0 -84.34774,-38.78136 -84.34774,-86.62059 0,-47.83922 37.76377,-86.62058 84.34774,-86.62058 46.58397,0 84.34774,38.78136 84.34774,86.62058 z"
       transform="matrix(0.2730541,0,0,0.26588942,48.580742,445.12816)" />
    <path
       style="fill:#000000"
       d=""
       id="path3052"
       inkscape:connector-curvature="0" />
    <path
       style="fill:#000000"
       d=""
       id="path3050"
       inkscape:connector-curvature="0" />
    <g
       id="g3119"
       transform="matrix(0.14927717,0,0,0.14536028,106.66989,511.85367)"
       style="fill:#ffffff;fill-opacity:1">
      <path
         style="fill:#ffffff;fill-opacity:1"
         d="m 244.43039,536.61215 c -1.67113,-0.9625 -9.39392,-8.33052 -17.16176,-16.37339 -11.45756,-11.86323 -14.34116,-15.43234 -15.27739,-18.90923 -1.8118,-6.72848 -0.55305,-10.52684 5.64026,-17.01988 4.96468,-5.20494 6.21139,-5.94712 13.16526,-7.83739 l 7.68126,-2.08799 7.76897,7.7234 7.76896,7.7234 -8.00282,8.00282 -8.00281,8.00281 9.58995,9.62608 c 8.57577,8.60807 9.60123,10.02391 9.69659,13.38788 0.0863,3.04594 -0.50565,4.30887 -3.11088,6.63664 -3.72797,3.33094 -5.55876,3.54204 -9.75559,1.12485 z m 8.56963,-3.25 c 3.77987,-3.77987 2.6561,-6.41156 -7,-16.39296 -6.31354,-6.52624 -9,-10.02879 -9,-11.73401 0,-1.66439 2.04971,-4.4623 6.50099,-8.87401 l 6.50099,-6.44321 -6.19318,-6.24872 c -6.7295,-6.78985 -6.73986,-6.79233 -15.45418,-3.69499 -2.5277,0.89843 -6.13737,3.57965 -9.25,6.87079 -4.51768,4.77678 -5.10419,5.89295 -5.10088,9.70725 0.005,5.80289 1.50346,7.88652 17.67381,24.57635 14.82941,15.3058 17.00306,16.5529 21.32245,12.23351 z m 17.357,4.00842 c -3.12266,-1.26015 -5.357,-4.96013 -5.357,-8.871 0,-2.97107 1.23785,-4.67749 9.47452,-13.06104 l 9.47452,-9.64347 -7.70873,-7.70873 -7.70874,-7.70874 7.83375,-7.87996 c 7.34771,-7.39106 8.02921,-7.83446 10.98421,-7.14651 9.09462,2.11728 11.67275,3.47555 17.20132,9.06241 5.09716,5.15091 5.77923,6.3284 6.19953,10.70254 0.67015,6.97437 -0.96462,9.53553 -16.65489,26.09296 -15.9579,16.83986 -18.22792,18.38533 -23.73849,16.16154 z m 21.37237,-17.55128 c 19.70463,-20.17147 20.76858,-23.23803 11.60044,-33.43521 -3.67297,-4.08523 -5.6534,-5.33289 -11.40576,-7.18556 l -6.96103,-2.24195 -6.4842,6.42657 -6.4842,6.42656 7.00269,7.04974 c 3.85148,3.87736 7.00269,7.91239 7.00269,8.96675 0,1.07626 -4.16644,6.15774 -9.5,11.58641 -5.225,5.31817 -9.5,10.34674 -9.5,11.17461 0,2.77555 4.01232,6.77377 6.82258,6.7986 2.15076,0.019 5.67309,-3.04298 17.90679,-15.56652 z m -94.67406,-33.70714 c -1.67533,-1.7875 -3.04814,-4.23186 -3.05068,-5.43191 -0.004,-2.07759 4.57008,-6.31809 6.81571,-6.31809 1.19833,0 7.17966,7.3354 7.17966,8.80501 0,1.1628 -5.70725,6.19499 -7.02604,6.19499 -0.47992,0 -2.24331,-1.4625 -3.91865,-3.25 z m 5.73999,-5.63268 c -0.67615,-0.88953 -1.34582,-1.79395 -1.48817,-2.00982 -0.14234,-0.21588 -0.95603,0.18615 -1.80819,0.89338 -1.39474,1.15753 -1.382,1.47086 0.12762,3.13897 1.28346,1.4182 1.99631,1.5881 3.03756,0.72394 1.08672,-0.90189 1.11312,-1.45465 0.13118,-2.74647 z m 2.44826,-2.94352 -4.06951,-4.8262 15.54004,-14.4238 c 8.54703,-7.93309 21.89537,-20.2241 29.66298,-27.31336 7.76761,-7.08925 21.55991,-19.68925 30.64955,-28 9.08964,-8.31074 17.53861,-15.97807 18.77549,-17.0385 l 2.24887,-1.92805 3.97451,3.881 c 2.18598,2.13455 3.98484,4.35218 3.99746,4.92806 0.026,1.18554 -0.60993,1.78311 -42.48879,39.926 -16.83527,15.33342 -30.43329,28.05526 -30.2178,28.27074 0.21548,0.21548 2.81995,-0.17879 5.78771,-0.87616 3.2879,-0.7726 12.03734,-1.25344 22.39593,-1.23081 15.06934,0.0329 18.22711,0.34423 27.80504,2.74118 9.5388,2.38716 22.68587,7.13941 26.53449,9.59138 1.08635,0.69211 0.94729,1.62226 -0.73571,4.92122 -1.14138,2.23729 -2.52787,4.34754 -3.08108,4.68945 -0.55322,0.3419 -5.12721,-1.02728 -10.16444,-3.04264 -27.72398,-11.09217 -62.26941,-10.22108 -87.07506,2.19566 -2.59421,1.29857 -4.88627,2.36103 -5.09346,2.36103 -0.20719,0 -2.20799,-2.17179 -4.44622,-4.8262 z m 17.90186,-4.72326 c 12.41039,-4.22104 22.46213,-5.78156 37.35458,-5.79923 16.39244,-0.0194 27.64368,1.86721 40.97477,6.87082 8.66106,3.25079 10.45081,3.28022 10.50992,0.17284 0.0285,-1.5013 -11.4348,-5.91406 -22.98469,-8.84783 -14.32383,-3.63838 -28.9846,-4.62665 -41.5,-2.7975 -4.95,0.72345 -10.8,1.34574 -13,1.38286 -3.59846,0.0607 -4.03067,-0.19717 -4.30547,-2.56904 -0.26798,-2.31287 2.98526,-5.61862 26.5,-26.92773 14.74301,-13.36015 30.95632,-28.202 36.02958,-32.9819 8.94985,-8.43232 9.16729,-8.74214 7.31301,-10.42024 -1.14699,-1.03801 -2.43607,-1.41289 -3.22411,-0.93761 -0.72215,0.43555 -8.73801,7.61683 -17.81301,15.9584 -9.075,8.34158 -22.85954,20.96681 -30.63232,28.05606 -7.77278,7.08926 -20.41359,18.73956 -28.09068,25.88956 l -13.95836,13 1.99046,2.69823 c 1.9333,2.62073 2.07782,2.65305 5.03217,1.12529 1.67294,-0.86511 6.0848,-2.60795 9.80415,-3.87298 z m -25.51056,-13.52312 c -2.08532,-1.64031 -2.63486,-2.9325 -2.63486,-6.19562 0,-4.0283 0.47492,-4.59994 20.66639,-24.87502 11.36652,-11.41359 21.84194,-21.23891 23.27872,-21.83404 1.56609,-0.6487 8.08423,-0.97006 16.27512,-0.8024 l 13.66281,0.27966 -17.38024,15.5 c -9.55913,8.525 -17.67794,15.34189 -18.04181,15.14864 -0.36386,-0.19325 -6.39261,5.31925 -13.39722,12.25 -11.46992,11.34899 -13.08639,12.60136 -16.26485,12.60136 -2.0562,0 -4.62892,-0.86504 -6.16406,-2.07258 z m 9.86514,-1.89078 c 1.65,-1.07259 7.5,-6.58213 13,-12.24341 5.5,-5.66128 16.93729,-16.36823 25.4162,-23.79323 l 15.4162,-13.5 -7.9162,-0.31419 c -4.35391,-0.1728 -9.4912,0.14956 -11.4162,0.71637 -4.59736,1.35366 -45,41.60333 -45,44.82962 0,2.10799 4.24825,6.27424 6.38486,6.26161 0.61333,-0.004 2.46514,-0.88417 4.11514,-1.95677 z m 94.40421,-8.70691 -12.90421,-12.67028 0,10.13442 0,10.13441 -23.25,0.28586 c -12.7875,0.15722 -23.33688,0.27398 -23.44307,0.25946 -0.10619,-0.0145 10.91881,-10.03522 24.5,-22.2682 l 24.69307,-22.2418 17.73358,18.2682 c 9.75346,10.04751 18.01694,19.28944 18.36328,20.53761 0.78105,2.81488 -1.26393,7.98204 -3.66827,9.26881 -0.98841,0.52898 -3.44479,0.96178 -5.45863,0.96178 -3.34374,0 -4.78151,-1.09968 -16.56575,-12.67027 z m 20.21794,9.6049 c 2.89006,-1.54671 3.88889,-4.95459 2.32561,-7.93463 -0.7213,-1.375 -8.27545,-9.42794 -16.787,-17.89543 l -15.47553,-15.39543 -2.39491,1.89543 c -3.64333,2.88349 -38.79032,34.63125 -38.79032,35.03874 0,0.19618 8.08311,0.35669 17.96247,0.35669 l 17.96248,0 0.28752,-9.25 c 0.27569,-8.86905 0.38495,-9.26378 2.65294,-9.58467 1.88275,-0.26639 4.8596,2.13114 14.58917,11.75 6.72307,6.64657 13.00072,12.08467 13.95034,12.08467 0.94961,0 2.62236,-0.47942 3.71723,-1.06537 z m -68.12862,-58.86897 c -11.351,-3.45282 -18.94961,-13.7044 -18.94961,-25.56566 0,-23.6852 28.27425,-35.27707 45.0725,-18.47882 10.40242,10.40242 10.41255,26.54509 0.0232,36.93446 -6.88433,6.88433 -17.44609,9.75644 -26.14607,7.11002 z m 13.88456,-2.6221 c 14.00104,-4.15786 21.35548,-20.06673 15.17686,-32.83006 -4.76923,-9.8519 -16.39243,-15.9315 -26.03563,-13.61813 -9.4738,2.27272 -16.64189,9.17552 -19.1323,18.4242 -3.03913,11.28646 4.45291,23.71784 16.99526,28.19985 4.77656,1.7069 6.74559,1.68026 12.99581,-0.17586 z"
         id="path3135"
         inkscape:connector-curvature="0" />
      <path
         style="fill:#ffffff;fill-opacity:1"
         d="m 244.3339,537.07671 c -1.19137,-0.66801 -8.70604,-8.06115 -16.69926,-16.4292 -15.59085,-16.32194 -17.55323,-19.5752 -16.19026,-26.84045 0.49132,-2.61896 2.3433,-5.46756 6.1479,-9.45628 4.8065,-5.03912 6.33502,-5.97256 13.03912,-7.96279 l 7.59435,-2.25451 7.8878,7.84154 7.88781,7.84154 -7.50067,7.54492 c -4.12537,4.1497 -7.50067,7.9949 -7.50067,8.54487 0,0.54998 3.86298,4.81502 8.58439,9.47788 9.7707,9.64952 10.96731,11.77621 9.36233,16.63935 -1.742,5.27831 -7.84826,7.72468 -12.61284,5.05313 z m 8.66612,-3.71456 c 3.77987,-3.77987 2.6561,-6.41156 -7,-16.39296 -6.31354,-6.52624 -9,-10.02879 -9,-11.73401 0,-1.66439 2.04971,-4.4623 6.50099,-8.87401 l 6.50099,-6.44321 -6.19318,-6.24872 c -6.7295,-6.78985 -6.73986,-6.79233 -15.45418,-3.69499 -2.5277,0.89843 -6.13737,3.57965 -9.25,6.87079 -4.51768,4.77678 -5.10419,5.89295 -5.10088,9.70725 0.005,5.80289 1.50346,7.88652 17.67381,24.57635 14.82941,15.3058 17.00306,16.5529 21.32245,12.23351 z m 14.92308,2.07692 c -2.18223,-2.18222 -2.92308,-3.86514 -2.92308,-6.64007 0,-3.34924 0.93742,-4.67114 9.47452,-13.36047 l 9.47452,-9.64347 -7.7167,-7.7167 -7.7167,-7.7167 8.00281,-8.00281 8.00281,-8.00281 6.88565,1.90934 c 5.95673,1.65175 7.67921,2.70289 12.76793,7.79161 4.35696,4.35696 6.0361,6.83019 6.47549,9.53784 1.2883,7.93885 0.1603,9.88137 -15.29103,26.3325 -18.40824,19.59938 -21.56425,21.38371 -27.43622,15.51174 z m 23.80629,-15.61978 c 19.70463,-20.17147 20.76858,-23.23803 11.60044,-33.43521 -3.67297,-4.08523 -5.6534,-5.33289 -11.40576,-7.18556 l -6.96103,-2.24195 -6.4842,6.42657 -6.4842,6.42656 7.00269,7.04974 c 3.85148,3.87736 7.00269,7.91239 7.00269,8.96675 0,1.07626 -4.16644,6.15774 -9.5,11.58641 -5.225,5.31817 -9.5,10.34674 -9.5,11.17461 0,2.77555 4.01232,6.77377 6.82258,6.7986 2.15076,0.019 5.67309,-3.04298 17.90679,-15.56652 z m -94.67406,-33.70714 c -1.67533,-1.7875 -3.04814,-4.23186 -3.05068,-5.43191 -0.004,-2.07759 4.57008,-6.31809 6.81571,-6.31809 1.19833,0 7.17966,7.3354 7.17966,8.80501 0,1.1628 -5.70725,6.19499 -7.02604,6.19499 -0.47992,0 -2.24331,-1.4625 -3.91865,-3.25 z m 5.73999,-5.63268 c -0.67615,-0.88953 -1.34582,-1.79395 -1.48817,-2.00982 -0.14234,-0.21588 -0.95603,0.18615 -1.80819,0.89338 -1.39474,1.15753 -1.382,1.47086 0.12762,3.13897 1.28346,1.4182 1.99631,1.5881 3.03756,0.72394 1.08672,-0.90189 1.11312,-1.45465 0.13118,-2.74647 z m 2.44826,-2.94352 -4.06951,-4.8262 15.54004,-14.4238 c 8.54703,-7.93309 21.89537,-20.2241 29.66298,-27.31336 7.76761,-7.08925 21.55991,-19.68925 30.64955,-28 9.08964,-8.31074 17.53861,-15.97807 18.77549,-17.0385 l 2.24887,-1.92805 3.97451,3.881 c 2.18598,2.13455 3.98484,4.35218 3.99746,4.92806 0.026,1.18554 -0.60993,1.78311 -42.48879,39.926 -16.83527,15.33342 -30.43329,28.05526 -30.2178,28.27074 0.21548,0.21548 2.81995,-0.17879 5.78771,-0.87616 3.2879,-0.7726 12.03734,-1.25344 22.39593,-1.23081 15.06934,0.0329 18.22711,0.34423 27.80504,2.74118 9.5388,2.38716 22.68587,7.13941 26.53449,9.59138 1.08635,0.69211 0.94729,1.62226 -0.73571,4.92122 -1.14138,2.23729 -2.52787,4.34754 -3.08108,4.68945 -0.55322,0.3419 -5.12721,-1.02728 -10.16444,-3.04264 -27.72398,-11.09217 -62.26941,-10.22108 -87.07506,2.19566 -2.59421,1.29857 -4.88627,2.36103 -5.09346,2.36103 -0.20719,0 -2.20799,-2.17179 -4.44622,-4.8262 z m 17.90186,-4.72326 c 12.41039,-4.22104 22.46213,-5.78156 37.35458,-5.79923 16.39244,-0.0194 27.64368,1.86721 40.97477,6.87082 8.66106,3.25079 10.45081,3.28022 10.50992,0.17284 0.0285,-1.5013 -11.4348,-5.91406 -22.98469,-8.84783 -14.32383,-3.63838 -28.9846,-4.62665 -41.5,-2.7975 -4.95,0.72345 -10.8,1.34574 -13,1.38286 -3.59846,0.0607 -4.03067,-0.19717 -4.30547,-2.56904 -0.26798,-2.31287 2.98526,-5.61862 26.5,-26.92773 14.74301,-13.36015 30.95632,-28.202 36.02958,-32.9819 8.94985,-8.43232 9.16729,-8.74214 7.31301,-10.42024 -1.14699,-1.03801 -2.43607,-1.41289 -3.22411,-0.93761 -0.72215,0.43555 -8.73801,7.61683 -17.81301,15.9584 -9.075,8.34158 -22.85954,20.96681 -30.63232,28.05606 -7.77278,7.08926 -20.41359,18.73956 -28.09068,25.88956 l -13.95836,13 1.99046,2.69823 c 1.9333,2.62073 2.07782,2.65305 5.03217,1.12529 1.67294,-0.86511 6.0848,-2.60795 9.80415,-3.87298 z M 197.17433,459.0477 c -1.46138,-1.55558 -2.17431,-3.58704 -2.17431,-6.19562 0,-3.7136 0.89228,-4.77715 20.66639,-24.63315 11.36652,-11.41359 21.84194,-21.23891 23.27872,-21.83404 1.56609,-0.6487 8.08423,-0.97006 16.27512,-0.8024 l 13.66281,0.27966 -17.19152,15.33167 c -9.45534,8.43242 -17.57415,15.24931 -18.04181,15.14864 -0.46766,-0.10067 -6.58133,5.48758 -13.58594,12.41833 -12.02829,11.90147 -12.95723,12.60136 -16.72539,12.60136 -2.87747,0 -4.59592,-0.64523 -6.16407,-2.31445 z m 10.32569,-1.64891 c 1.65,-1.07259 7.5,-6.58213 13,-12.24341 5.5,-5.66128 16.93729,-16.36823 25.4162,-23.79323 l 15.4162,-13.5 -7.9162,-0.31419 c -4.35391,-0.1728 -9.4912,0.14956 -11.4162,0.71637 -4.59736,1.35366 -45,41.60333 -45,44.82962 0,2.10799 4.24825,6.27424 6.38486,6.26161 0.61333,-0.004 2.46514,-0.88417 4.11514,-1.95677 z m 94.33593,-8.73723 -12.83593,-12.7006 0,10.7006 0,10.70059 -23.7,0 c -14.32219,0 -23.3241,-0.36128 -22.75,-0.91304 0.5225,-0.50217 11.75,-10.61613 24.95,-22.47547 l 24,-21.56242 15.3545,15.22547 c 17.50039,17.35331 21.1455,21.82162 21.1455,25.92095 0,4.41794 -3.95679,7.80451 -9.11861,7.80451 -4.05129,0 -4.69199,-0.47739 -17.04546,-12.70059 z m 20.28622,9.63522 c 2.89006,-1.54671 3.88889,-4.95459 2.32561,-7.93463 -0.7213,-1.375 -8.27545,-9.42794 -16.787,-17.89543 l -15.47553,-15.39543 -2.39491,1.89543 c -3.64333,2.88349 -38.79032,34.63125 -38.79032,35.03874 0,0.19618 8.08311,0.35669 17.96247,0.35669 l 17.96248,0 0.28752,-9.25 c 0.27569,-8.86905 0.38495,-9.26378 2.65294,-9.58467 1.88275,-0.26639 4.8596,2.13114 14.58917,11.75 6.72307,6.64657 13.00072,12.08467 13.95034,12.08467 0.94961,0 2.62236,-0.47942 3.71723,-1.06537 z m -71.66025,-60.23703 c -6.02755,-2.8824 -12.66127,-10.08196 -14.28588,-15.50444 -3.84344,-12.82824 1.66033,-26.25867 13.32398,-32.51348 3.12365,-1.6751 5.7527,-2.14885 12,-2.16237 6.94373,-0.015 8.61744,0.34565 12.67638,2.7317 14.94854,8.7875 18.2763,27.68421 7.1619,40.66889 -4.95843,5.79281 -10.36134,8.31486 -18.83828,8.7936 -5.85568,0.33071 -7.8236,0.002 -12.0381,-2.0139 z m 17.41619,-1.25404 c 14.00104,-4.15786 21.35548,-20.06673 15.17686,-32.83006 -4.76923,-9.8519 -16.39243,-15.9315 -26.03563,-13.61813 -9.4738,2.27272 -16.64189,9.17552 -19.1323,18.4242 -3.03913,11.28646 4.45291,23.71784 16.99526,28.19985 4.77656,1.7069 6.74559,1.68026 12.99581,-0.17586 z"
         id="path3133"
         inkscape:connector-curvature="0" />
      <path
         style="fill:#ffffff;fill-opacity:1"
         d="m 244.00002,536.87848 c -4.0755,-2.28815 -29.93918,-30.12651 -31.5326,-33.9401 -3.10144,-7.4228 -1.60592,-12.16367 6.26132,-19.84872 4.01456,-3.92158 6.19161,-5.14206 12.21043,-6.84534 l 7.32479,-2.07286 7.8687,7.82255 7.8687,7.82255 -7.68688,7.73223 -7.68688,7.73223 9.02461,9.32864 c 5.14117,5.31437 9.33411,10.56179 9.74385,12.19431 0.96622,3.84973 -1.01402,8.30927 -4.48723,10.10534 -3.46573,1.7922 -5.67537,1.78455 -8.90881,-0.0308 z m 9,-3.51633 c 3.77987,-3.77987 2.6561,-6.41156 -7,-16.39296 -6.31354,-6.52624 -9,-10.02879 -9,-11.73401 0,-1.66439 2.04971,-4.4623 6.50099,-8.87401 l 6.50099,-6.44321 -6.19318,-6.24872 c -6.7295,-6.78985 -6.73986,-6.79233 -15.45418,-3.69499 -2.5277,0.89843 -6.13737,3.57965 -9.25,6.87079 -4.51768,4.77678 -5.10419,5.89295 -5.10088,9.70725 0.005,5.80289 1.50346,7.88652 17.67381,24.57635 14.82941,15.3058 17.00306,16.5529 21.32245,12.23351 z m 15.19468,2.51036 c -2.62482,-2.20864 -3.19468,-3.41079 -3.19468,-6.73933 0,-3.77155 0.65456,-4.71741 9.48287,-13.70315 l 9.48287,-9.65197 -7.48287,-7.43293 c -4.11558,-4.08811 -7.48287,-7.90545 -7.48287,-8.48298 0,-0.57753 3.30401,-4.33201 7.34223,-8.34329 l 7.34224,-7.29323 6.36342,1.64893 c 3.49988,0.90691 7.50838,2.24923 8.90777,2.98294 2.72531,1.42889 7.69921,6.44296 10.39322,10.47716 2.01872,3.02297 2.14049,9.96708 0.25093,14.30961 -0.77011,1.76983 -8.08261,10.10897 -16.25,18.53141 -12.50527,12.89578 -15.41114,15.39811 -18.40513,15.84925 -2.86793,0.43214 -4.17299,0.016 -6.75,-2.15242 z m 23.53469,-16.05322 c 19.70463,-20.17147 20.76858,-23.23803 11.60044,-33.43521 -3.67297,-4.08523 -5.6534,-5.33289 -11.40576,-7.18556 l -6.96103,-2.24195 -6.4842,6.42657 -6.4842,6.42656 7.00269,7.04974 c 3.85148,3.87736 7.00269,7.91239 7.00269,8.96675 0,1.07626 -4.16644,6.15774 -9.5,11.58641 -5.225,5.31817 -9.5,10.34674 -9.5,11.17461 0,2.77555 4.01232,6.77377 6.82258,6.7986 2.15076,0.019 5.67309,-3.04298 17.90679,-15.56652 z m -94.67406,-33.70714 c -1.67533,-1.7875 -3.04814,-4.23186 -3.05068,-5.43191 -0.004,-2.07759 4.57008,-6.31809 6.81571,-6.31809 1.19833,0 7.17966,7.3354 7.17966,8.80501 0,1.1628 -5.70725,6.19499 -7.02604,6.19499 -0.47992,0 -2.24331,-1.4625 -3.91865,-3.25 z m 5.73999,-5.63268 c -0.67615,-0.88953 -1.34582,-1.79395 -1.48817,-2.00982 -0.14234,-0.21588 -0.95603,0.18615 -1.80819,0.89338 -1.39474,1.15753 -1.382,1.47086 0.12762,3.13897 1.28346,1.4182 1.99631,1.5881 3.03756,0.72394 1.08672,-0.90189 1.11312,-1.45465 0.13118,-2.74647 z m 2.44826,-2.94352 -4.06951,-4.8262 15.54004,-14.4238 c 8.54703,-7.93309 21.89537,-20.2241 29.66298,-27.31336 7.76761,-7.08925 21.55991,-19.68925 30.64955,-28 9.08964,-8.31074 17.53861,-15.97807 18.77549,-17.0385 l 2.24887,-1.92805 3.97451,3.881 c 2.18598,2.13455 3.98484,4.35218 3.99746,4.92806 0.026,1.18554 -0.60993,1.78311 -42.48879,39.926 -16.83527,15.33342 -30.43329,28.05526 -30.2178,28.27074 0.21548,0.21548 2.81995,-0.17879 5.78771,-0.87616 3.2879,-0.7726 12.03734,-1.25344 22.39593,-1.23081 15.06934,0.0329 18.22711,0.34423 27.80504,2.74118 9.5388,2.38716 22.68587,7.13941 26.53449,9.59138 1.08635,0.69211 0.94729,1.62226 -0.73571,4.92122 -1.14138,2.23729 -2.52787,4.34754 -3.08108,4.68945 -0.55322,0.3419 -5.12721,-1.02728 -10.16444,-3.04264 -27.72398,-11.09217 -62.26941,-10.22108 -87.07506,2.19566 -2.59421,1.29857 -4.88627,2.36103 -5.09346,2.36103 -0.20719,0 -2.20799,-2.17179 -4.44622,-4.8262 z m 17.90186,-4.72326 c 12.41039,-4.22104 22.46213,-5.78156 37.35458,-5.79923 16.39244,-0.0194 27.64368,1.86721 40.97477,6.87082 8.66106,3.25079 10.45081,3.28022 10.50992,0.17284 0.0285,-1.5013 -11.4348,-5.91406 -22.98469,-8.84783 -14.32383,-3.63838 -28.9846,-4.62665 -41.5,-2.7975 -4.95,0.72345 -10.8,1.34574 -13,1.38286 -3.59846,0.0607 -4.03067,-0.19717 -4.30547,-2.56904 -0.26798,-2.31287 2.98526,-5.61862 26.5,-26.92773 14.74301,-13.36015 30.95632,-28.202 36.02958,-32.9819 8.94985,-8.43232 9.16729,-8.74214 7.31301,-10.42024 -1.14699,-1.03801 -2.43607,-1.41289 -3.22411,-0.93761 -0.72215,0.43555 -8.73801,7.61683 -17.81301,15.9584 -9.075,8.34158 -22.85954,20.96681 -30.63232,28.05606 -7.77278,7.08926 -20.41359,18.73956 -28.09068,25.88956 l -13.95836,13 1.99046,2.69823 c 1.9333,2.62073 2.07782,2.65305 5.03217,1.12529 1.67294,-0.86511 6.0848,-2.60795 9.80415,-3.87298 z m 92.35458,-11.88668 c -1.65,-0.74682 -7.94233,-6.3542 -13.98295,-12.46085 -6.04062,-6.10666 -11.32812,-11.10301 -11.75,-11.10301 -0.42188,0 -0.76705,4.5 -0.76705,10 l 0,10 -23.7,0 c -14.32219,0 -23.3241,-0.36128 -22.75,-0.91304 0.5225,-0.50217 11.75,-10.62773 24.95,-22.50123 l 24,-21.5882 18.25,18.35438 c 16.07066,16.16257 18.25,18.73802 18.25,21.56698 0,4.50244 -1.61278,7.02137 -5.54837,8.66577 -3.97808,1.66215 -3.22843,1.66439 -6.95163,-0.0208 z m 6.62215,-2.62923 c 2.89006,-1.54671 3.88889,-4.95459 2.32561,-7.93463 -0.7213,-1.375 -8.27545,-9.42794 -16.787,-17.89543 l -15.47553,-15.39543 -2.39491,1.89543 c -3.64333,2.88349 -38.79032,34.63125 -38.79032,35.03874 0,0.19618 8.08311,0.35669 17.96247,0.35669 l 17.96248,0 0.28752,-9.25 c 0.27569,-8.86905 0.38495,-9.26378 2.65294,-9.58467 1.88275,-0.26639 4.8596,2.13114 14.58917,11.75 6.72307,6.64657 13.00072,12.08467 13.95034,12.08467 0.94961,0 2.62236,-0.47942 3.71723,-1.06537 z m -124.94784,0.75092 c -1.46138,-1.55558 -2.17431,-3.58704 -2.17431,-6.19562 0,-3.7136 0.89228,-4.77715 20.66639,-24.63315 11.36652,-11.41359 21.84194,-21.23891 23.27872,-21.83404 1.56609,-0.6487 8.08423,-0.97006 16.27512,-0.8024 l 13.66281,0.27966 -17.19152,15.33167 c -9.45534,8.43242 -17.57415,15.24931 -18.04181,15.14864 -0.46766,-0.10067 -6.58133,5.48758 -13.58594,12.41833 -12.02829,11.90147 -12.95723,12.60136 -16.72539,12.60136 -2.87747,0 -4.59592,-0.64523 -6.16407,-2.31445 z m 10.32569,-1.64891 c 1.65,-1.07259 7.5,-6.58213 13,-12.24341 5.5,-5.66128 16.93729,-16.36823 25.4162,-23.79323 l 15.4162,-13.5 -7.9162,-0.31419 c -4.35391,-0.1728 -9.4912,0.14956 -11.4162,0.71637 -4.59736,1.35366 -45,41.60333 -45,44.82962 0,2.10799 4.24825,6.27424 6.38486,6.26161 0.61333,-0.004 2.46514,-0.88417 4.11514,-1.95677 z m 44.9532,-58.36272 c -12.38933,-4.77357 -18.55046,-14.94934 -17.24352,-28.47954 0.90108,-9.32853 6.42324,-16.72771 15.65567,-20.97711 9.87049,-4.54308 22.8718,-1.83642 29.96063,6.23731 5.54203,6.31203 6.64639,9.31209 6.64274,18.04542 -0.004,9.04235 -1.83473,13.6475 -7.63109,19.19342 -6.8794,6.58217 -18.96986,9.22261 -27.38443,5.9805 z m 15.42489,-2.23036 c 14.00104,-4.15786 21.35548,-20.06673 15.17686,-32.83006 -4.76923,-9.8519 -16.39243,-15.9315 -26.03563,-13.61813 -9.4738,2.27272 -16.64189,9.17552 -19.1323,18.4242 -3.03913,11.28646 4.45291,23.71784 16.99526,28.19985 4.77656,1.7069 6.74559,1.68026 12.99581,-0.17586 z"
         id="path3131"
         inkscape:connector-curvature="0" />
      <path
         style="fill:#ffffff;fill-opacity:1"
         d="m 244.00002,536.91613 c -4.01056,-2.19127 -29.90787,-30.08923 -31.52563,-33.96109 -3.17348,-7.5952 -1.59978,-12.34849 6.67908,-20.17378 4.48492,-4.23921 6.46223,-5.33362 12.26949,-6.79099 l 6.92294,-1.73735 7.82773,7.78182 7.82773,7.78182 -7.70591,7.75136 -7.7059,7.75137 9.13419,9.31429 c 9.68863,9.87965 11.2689,12.91795 9.25174,17.78781 -2.30876,5.57384 -7.62803,7.41645 -12.97546,4.49474 z m 9,-3.55398 c 3.77987,-3.77987 2.6561,-6.41156 -7,-16.39296 -6.31354,-6.52624 -9,-10.02879 -9,-11.73401 0,-1.66439 2.04971,-4.4623 6.50099,-8.87401 l 6.50099,-6.44321 -6.19318,-6.24872 c -6.7295,-6.78985 -6.73986,-6.79233 -15.45418,-3.69499 -2.5277,0.89843 -6.13737,3.57965 -9.25,6.87079 -4.51768,4.77678 -5.10419,5.89295 -5.10088,9.70725 0.005,5.80289 1.50346,7.88652 17.67381,24.57635 14.82941,15.3058 17.00306,16.5529 21.32245,12.23351 z m 16.5,3.79218 c -3.23936,-1.85777 -4.43438,-4.04612 -4.4682,-8.18226 -0.0293,-3.5834 0.71511,-4.65031 9.44248,-13.53329 l 9.47428,-9.64322 -7.98225,-7.98225 -7.98224,-7.98224 7.98762,-7.94078 7.98763,-7.94078 7.77034,2.2709 c 6.12361,1.78963 8.68802,3.15789 12.10055,6.45631 2.38161,2.30199 4.96911,5.40058 5.75,6.88577 2.02743,3.85603 1.79304,11.67532 -0.46079,15.37131 -1.03021,1.68941 -8.56603,9.91099 -16.74626,18.27017 -12.7665,13.04577 -15.29809,15.19136 -17.87316,15.14794 -1.65,-0.0278 -3.9,-0.56673 -5,-1.19758 z m 22.22937,-17.33504 c 19.70463,-20.17147 20.76858,-23.23803 11.60044,-33.43521 -3.67297,-4.08523 -5.6534,-5.33289 -11.40576,-7.18556 l -6.96103,-2.24195 -6.4842,6.42657 -6.4842,6.42656 7.00269,7.04974 c 3.85148,3.87736 7.00269,7.91239 7.00269,8.96675 0,1.07626 -4.16644,6.15774 -9.5,11.58641 -5.225,5.31817 -9.5,10.34674 -9.5,11.17461 0,2.77555 4.01232,6.77377 6.82258,6.7986 2.15076,0.019 5.67309,-3.04298 17.90679,-15.56652 z m -94.67406,-33.70714 c -1.67533,-1.7875 -3.04814,-4.23186 -3.05068,-5.43191 -0.004,-2.07759 4.57008,-6.31809 6.81571,-6.31809 1.19833,0 7.17966,7.3354 7.17966,8.80501 0,1.1628 -5.70725,6.19499 -7.02604,6.19499 -0.47992,0 -2.24331,-1.4625 -3.91865,-3.25 z m 5.73999,-5.63268 c -0.67615,-0.88953 -1.34582,-1.79395 -1.48817,-2.00982 -0.14234,-0.21588 -0.95603,0.18615 -1.80819,0.89338 -1.39474,1.15753 -1.382,1.47086 0.12762,3.13897 1.28346,1.4182 1.99631,1.5881 3.03756,0.72394 1.08672,-0.90189 1.11312,-1.45465 0.13118,-2.74647 z m 2.44826,-2.94352 -4.06951,-4.8262 15.54004,-14.4238 c 8.54703,-7.93309 21.89537,-20.2241 29.66298,-27.31336 7.76761,-7.08925 21.55991,-19.68925 30.64955,-28 9.08964,-8.31074 17.53861,-15.97807 18.77549,-17.0385 l 2.24887,-1.92805 3.97451,3.881 c 2.18598,2.13455 3.98484,4.35218 3.99746,4.92806 0.026,1.18554 -0.60993,1.78311 -42.48879,39.926 -16.83527,15.33342 -30.43329,28.05526 -30.2178,28.27074 0.21548,0.21548 2.81995,-0.17879 5.78771,-0.87616 3.2879,-0.7726 12.03734,-1.25344 22.39593,-1.23081 15.06934,0.0329 18.22711,0.34423 27.80504,2.74118 9.5388,2.38716 22.68587,7.13941 26.53449,9.59138 1.08635,0.69211 0.94729,1.62226 -0.73571,4.92122 -1.14138,2.23729 -2.52787,4.34754 -3.08108,4.68945 -0.55322,0.3419 -5.12721,-1.02728 -10.16444,-3.04264 -27.72398,-11.09217 -62.26941,-10.22108 -87.07506,2.19566 -2.59421,1.29857 -4.88627,2.36103 -5.09346,2.36103 -0.20719,0 -2.20799,-2.17179 -4.44622,-4.8262 z m 17.90186,-4.72326 c 12.41039,-4.22104 22.46213,-5.78156 37.35458,-5.79923 16.39244,-0.0194 27.64368,1.86721 40.97477,6.87082 8.66106,3.25079 10.45081,3.28022 10.50992,0.17284 0.0285,-1.5013 -11.4348,-5.91406 -22.98469,-8.84783 -14.32383,-3.63838 -28.9846,-4.62665 -41.5,-2.7975 -4.95,0.72345 -10.8,1.34574 -13,1.38286 -3.59846,0.0607 -4.03067,-0.19717 -4.30547,-2.56904 -0.26798,-2.31287 2.98526,-5.61862 26.5,-26.92773 14.74301,-13.36015 30.95632,-28.202 36.02958,-32.9819 8.94985,-8.43232 9.16729,-8.74214 7.31301,-10.42024 -1.14699,-1.03801 -2.43607,-1.41289 -3.22411,-0.93761 -0.72215,0.43555 -8.73801,7.61683 -17.81301,15.9584 -9.075,8.34158 -22.85954,20.96681 -30.63232,28.05606 -7.77278,7.08926 -20.41359,18.73956 -28.09068,25.88956 l -13.95836,13 1.99046,2.69823 c 1.9333,2.62073 2.07782,2.65305 5.03217,1.12529 1.67294,-0.86511 6.0848,-2.60795 9.80415,-3.87298 z m -21.64542,-11.26515 c -5.21269,-1.02133 -8.19783,-6.64563 -6.09481,-11.48322 0.76564,-1.76119 10.66556,-12.42717 21.99983,-23.70217 l 20.60777,-20.5 15.7436,-0.31602 c 9.93443,-0.19941 15.37462,0.0334 14.74361,0.63104 -7.94972,7.52888 -34.37815,30.56096 -35.5,30.93785 -0.825,0.27716 -6.675,5.77907 -13,12.22646 -11.22329,11.44046 -13.78409,13.13004 -18.5,12.20606 z m 6,-4.14875 c 1.65,-1.07259 7.5,-6.58213 13,-12.24341 5.5,-5.66128 16.93729,-16.36823 25.4162,-23.79323 l 15.4162,-13.5 -7.9162,-0.31419 c -4.35391,-0.1728 -9.4912,0.14956 -11.4162,0.71637 -4.59736,1.35366 -45,41.60333 -45,44.82962 0,2.10799 4.24825,6.27424 6.38486,6.26161 0.61333,-0.004 2.46514,-0.88417 4.11514,-1.95677 z m 107,3.06599 c -1.65,-1.03944 -7.71696,-6.66276 -13.48213,-12.49626 -5.76518,-5.83351 -10.82768,-10.60637 -11.25,-10.60637 -0.42233,0 -0.76787,4.5 -0.76787,10 l 0,10 -23.7,0 c -14.32219,0 -23.3241,-0.36128 -22.75,-0.91304 0.5225,-0.50217 11.75,-10.62305 24.95,-22.49083 l 24,-21.57778 18.25,18.29501 c 16.19682,16.23676 18.25,18.66194 18.25,21.55656 0,4.31217 -1.42723,6.78253 -4.97998,8.61973 -3.7728,1.95099 -4.88919,1.90028 -8.52002,-0.38702 z m 7.62215,-2.168 c 2.89006,-1.54671 3.88889,-4.95459 2.32561,-7.93463 -0.7213,-1.375 -8.27545,-9.42794 -16.787,-17.89543 l -15.47553,-15.39543 -2.39491,1.89543 c -3.64333,2.88349 -38.79032,34.63125 -38.79032,35.03874 0,0.19618 8.08311,0.35669 17.96247,0.35669 l 17.96248,0 0.28752,-9.25 c 0.27569,-8.86905 0.38495,-9.26378 2.65294,-9.58467 1.88275,-0.26639 4.8596,2.13114 14.58917,11.75 6.72307,6.64657 13.00072,12.08467 13.95034,12.08467 0.94961,0 2.62236,-0.47942 3.71723,-1.06537 z m -69.48851,-58.96522 c -6.64911,-1.99189 -13.88169,-9.09653 -16.57775,-16.28451 -1.71631,-4.57585 -1.25172,-15.65698 0.85052,-20.28602 4.04441,-8.90559 12.47669,-14.51046 22.88704,-15.21281 14.93876,-1.00786 26.75796,9.35638 27.97614,24.53224 1.23895,15.43476 -10.82803,28.38203 -26.26959,28.18597 -3.3,-0.0419 -7.28986,-0.46259 -8.86636,-0.93487 z m 15.24445,-2.52585 c 14.00104,-4.15786 21.35548,-20.06673 15.17686,-32.83006 -4.76923,-9.8519 -16.39243,-15.9315 -26.03563,-13.61813 -9.4738,2.27272 -16.64189,9.17552 -19.1323,18.4242 -3.03913,11.28646 4.45291,23.71784 16.99526,28.19985 4.77656,1.7069 6.74559,1.68026 12.99581,-0.17586 z"
         id="path3129"
         inkscape:connector-curvature="0" />
      <path
         style="fill:#ffffff;fill-opacity:1"
         d="m 229.26887,522.63293 c -8.37713,-8.67393 -15.9658,-17.29662 -16.8637,-19.16153 -1.1191,-2.32431 -1.48063,-4.97195 -1.14948,-8.41823 0.44423,-4.62322 0.99616,-5.52349 6.8637,-11.19563 5.53741,-5.35298 7.28083,-6.4098 13.19239,-7.9969 l 6.81177,-1.82877 7.9389,7.89235 7.93891,7.89234 -7.72852,7.77411 -7.72851,7.7741 8.61747,8.74869 c 4.7396,4.81178 9.15833,9.80857 9.81938,11.10399 2.97577,5.83138 -1.9364,13.12565 -8.86602,13.16548 -3.3658,0.0194 -4.66565,-1.06694 -18.84629,-15.75 z m 23.73115,10.72922 c 3.77987,-3.77987 2.6561,-6.41156 -7,-16.39296 -6.31354,-6.52624 -9,-10.02879 -9,-11.73401 0,-1.66439 2.04971,-4.4623 6.50099,-8.87401 l 6.50099,-6.44321 -6.19318,-6.24872 c -6.7295,-6.78985 -6.73986,-6.79233 -15.45418,-3.69499 -2.5277,0.89843 -6.13737,3.57965 -9.25,6.87079 -4.51768,4.77678 -5.10419,5.89295 -5.10088,9.70725 0.005,5.80289 1.50346,7.88652 17.67381,24.57635 14.82941,15.3058 17.00306,16.5529 21.32245,12.23351 z m 15.83102,3.47048 c -3.27241,-1.77716 -5.28745,-7.17882 -3.94543,-10.57644 0.5201,-1.31672 4.8086,-6.20911 9.53002,-10.87196 4.72141,-4.66286 8.58439,-8.9279 8.58439,-9.47788 0,-0.54997 -3.3753,-4.39517 -7.50067,-8.54487 l -7.50067,-7.54492 7.98033,-7.93352 7.98033,-7.93353 7.77034,2.2709 c 6.12361,1.78963 8.68802,3.15789 12.10055,6.45631 2.38161,2.30199 4.96911,5.40058 5.75,6.88577 2.09621,3.98684 1.79247,11.67612 -0.61737,15.62878 -1.11632,1.83102 -8.65214,10.04817 -16.74626,18.26033 -15.83321,16.06412 -17.10499,16.79183 -23.38556,13.38103 z m 22.89835,-17.01334 c 19.70463,-20.17147 20.76858,-23.23803 11.60044,-33.43521 -3.67297,-4.08523 -5.6534,-5.33289 -11.40576,-7.18556 l -6.96103,-2.24195 -6.4842,6.42657 -6.4842,6.42656 7.00269,7.04974 c 3.85148,3.87736 7.00269,7.91239 7.00269,8.96675 0,1.07626 -4.16644,6.15774 -9.5,11.58641 -5.225,5.31817 -9.5,10.34674 -9.5,11.17461 0,2.77555 4.01232,6.77377 6.82258,6.7986 2.15076,0.019 5.67309,-3.04298 17.90679,-15.56652 z m -94.67406,-33.70714 c -1.67533,-1.7875 -3.04814,-4.23186 -3.05068,-5.43191 -0.004,-2.07759 4.57008,-6.31809 6.81571,-6.31809 1.19833,0 7.17966,7.3354 7.17966,8.80501 0,1.1628 -5.70725,6.19499 -7.02604,6.19499 -0.47992,0 -2.24331,-1.4625 -3.91865,-3.25 z m 5.73999,-5.63268 c -0.67615,-0.88953 -1.34582,-1.79395 -1.48817,-2.00982 -0.14234,-0.21588 -0.95603,0.18615 -1.80819,0.89338 -1.39474,1.15753 -1.382,1.47086 0.12762,3.13897 1.28346,1.4182 1.99631,1.5881 3.03756,0.72394 1.08672,-0.90189 1.11312,-1.45465 0.13118,-2.74647 z m 2.44826,-2.94352 -4.06951,-4.8262 15.54004,-14.4238 c 8.54703,-7.93309 21.89537,-20.2241 29.66298,-27.31336 7.76761,-7.08925 21.55991,-19.68925 30.64955,-28 9.08964,-8.31074 17.53861,-15.97807 18.77549,-17.0385 l 2.24887,-1.92805 3.97451,3.881 c 2.18598,2.13455 3.98484,4.35218 3.99746,4.92806 0.026,1.18554 -0.60993,1.78311 -42.48879,39.926 -16.83527,15.33342 -30.43329,28.05526 -30.2178,28.27074 0.21548,0.21548 2.81995,-0.17879 5.78771,-0.87616 3.2879,-0.7726 12.03734,-1.25344 22.39593,-1.23081 15.06934,0.0329 18.22711,0.34423 27.80504,2.74118 9.5388,2.38716 22.68587,7.13941 26.53449,9.59138 1.08635,0.69211 0.94729,1.62226 -0.73571,4.92122 -1.14138,2.23729 -2.52787,4.34754 -3.08108,4.68945 -0.55322,0.3419 -5.12721,-1.02728 -10.16444,-3.04264 -27.72398,-11.09217 -62.26941,-10.22108 -87.07506,2.19566 -2.59421,1.29857 -4.88627,2.36103 -5.09346,2.36103 -0.20719,0 -2.20799,-2.17179 -4.44622,-4.8262 z m 17.90186,-4.72326 c 12.41039,-4.22104 22.46213,-5.78156 37.35458,-5.79923 16.39244,-0.0194 27.64368,1.86721 40.97477,6.87082 8.66106,3.25079 10.45081,3.28022 10.50992,0.17284 0.0285,-1.5013 -11.4348,-5.91406 -22.98469,-8.84783 -14.32383,-3.63838 -28.9846,-4.62665 -41.5,-2.7975 -4.95,0.72345 -10.8,1.34574 -13,1.38286 -3.59846,0.0607 -4.03067,-0.19717 -4.30547,-2.56904 -0.26798,-2.31287 2.98526,-5.61862 26.5,-26.92773 14.74301,-13.36015 30.95632,-28.202 36.02958,-32.9819 8.94985,-8.43232 9.16729,-8.74214 7.31301,-10.42024 -1.14699,-1.03801 -2.43607,-1.41289 -3.22411,-0.93761 -0.72215,0.43555 -8.73801,7.61683 -17.81301,15.9584 -9.075,8.34158 -22.85954,20.96681 -30.63232,28.05606 -7.77278,7.08926 -20.41359,18.73956 -28.09068,25.88956 l -13.95836,13 1.99046,2.69823 c 1.9333,2.62073 2.07782,2.65305 5.03217,1.12529 1.67294,-0.86511 6.0848,-2.60795 9.80415,-3.87298 z m -23.7243,-11.86946 c -3.54454,-1.54339 -5.83116,-6.09915 -4.90782,-9.77807 0.36057,-1.43661 9.89433,-11.73535 22.35964,-24.15374 l 21.73105,-21.64927 15.398,0 c 8.93149,0 14.99905,0.37 14.44801,0.88104 -10.03026,9.30218 -34.3335,30.51455 -35.45,30.94149 -0.825,0.31547 -6.11262,5.38325 -11.75026,11.26171 -8.95116,9.33352 -14.98519,14.01106 -17.90087,13.87662 -0.46688,-0.0215 -2.23437,-0.64243 -3.92775,-1.37978 z m 8.07888,-3.54444 c 1.65,-1.07259 7.5,-6.58213 13,-12.24341 5.5,-5.66128 16.93729,-16.36823 25.4162,-23.79323 l 15.4162,-13.5 -7.9162,-0.31419 c -4.35391,-0.1728 -9.4912,0.14956 -11.4162,0.71637 -4.59736,1.35366 -45,41.60333 -45,44.82962 0,2.10799 4.24825,6.27424 6.38486,6.26161 0.61333,-0.004 2.46514,-0.88417 4.11514,-1.95677 z m 108,3.85385 c -1.1,-0.62208 -7.2875,-6.35739 -13.75,-12.74514 l -11.75,-11.61409 0,9.76576 c 0,6.97874 -0.36291,9.90501 -1.27164,10.25372 -0.6994,0.26839 -11.48756,0.36677 -23.97368,0.21862 l -22.70204,-0.26936 24.72368,-22.23565 24.72368,-22.23566 18.25,18.28984 c 16.97449,17.01154 18.25,18.54424 18.25,21.92989 0,6.56254 -7.27874,11.59481 -12.5,8.64207 z m 6.62215,-2.95586 c 2.89006,-1.54671 3.88889,-4.95459 2.32561,-7.93463 -0.7213,-1.375 -8.27545,-9.42794 -16.787,-17.89543 l -15.47553,-15.39543 -2.39491,1.89543 c -3.64333,2.88349 -38.79032,34.63125 -38.79032,35.03874 0,0.19618 8.08311,0.35669 17.96247,0.35669 l 17.96248,0 0.28752,-9.25 c 0.27569,-8.86905 0.38495,-9.26378 2.65294,-9.58467 1.88275,-0.26639 4.8596,2.13114 14.58917,11.75 6.72307,6.64657 13.00072,12.08467 13.95034,12.08467 0.94961,0 2.62236,-0.47942 3.71723,-1.06537 z M 249.21983,397.7844 c -20.52354,-10.22732 -18.86917,-41.35261 2.60562,-49.02213 6.02649,-2.1523 14.94411,-1.72649 20.67457,0.98719 17.73275,8.39742 20.93883,31.25409 6.20335,44.22477 -7.98962,7.03275 -19.92217,8.5748 -29.48354,3.81017 z m 18.65828,-0.97869 c 14.00104,-4.15786 21.35548,-20.06673 15.17686,-32.83006 -4.76923,-9.8519 -16.39243,-15.9315 -26.03563,-13.61813 -9.4738,2.27272 -16.64189,9.17552 -19.1323,18.4242 -3.03913,11.28646 4.45291,23.71784 16.99526,28.19985 4.77656,1.7069 6.74559,1.68026 12.99581,-0.17586 z"
         id="path3127"
         inkscape:connector-curvature="0" />
      <path
         style="fill:#ffffff;fill-opacity:1"
         d="m 229.1467,522.63998 c -8.44432,-8.67781 -15.98182,-17.22588 -16.75,-18.99571 -0.76817,-1.76984 -1.39668,-5.21298 -1.39668,-7.65144 0,-3.88152 0.64016,-5.19053 5.14135,-10.51315 5.17693,-6.12168 9.61774,-8.63541 18.72983,-10.60207 3.21132,-0.6931 3.74481,-0.35616 11.25067,7.10567 l 7.87949,7.83328 -7.72852,7.77411 -7.72851,7.7741 8.61747,8.74869 c 4.7396,4.81178 9.11713,9.73161 9.72784,10.93295 3.10942,6.11663 -1.49519,13.29217 -8.5627,13.34357 -3.63701,0.0265 -4.58881,-0.75512 -19.18024,-15.75 z m 23.85332,10.72217 c 3.77987,-3.77987 2.6561,-6.41156 -7,-16.39296 -6.31354,-6.52624 -9,-10.02879 -9,-11.73401 0,-1.66439 2.04971,-4.4623 6.50099,-8.87401 l 6.50099,-6.44321 -6.19318,-6.24872 c -6.7295,-6.78985 -6.73986,-6.79233 -15.45418,-3.69499 -2.5277,0.89843 -6.13737,3.57965 -9.25,6.87079 -4.51768,4.77678 -5.10419,5.89295 -5.10088,9.70725 0.005,5.80289 1.50346,7.88652 17.67381,24.57635 14.82941,15.3058 17.00306,16.5529 21.32245,12.23351 z m 15.27662,3.22776 c -2.80142,-2.17695 -4.59074,-7.20439 -3.55787,-9.99651 0.43352,-1.1719 4.7896,-6.46505 9.6802,-11.76254 l 8.89198,-9.63182 -7.64613,-7.69124 -7.64614,-7.69124 7.90479,-7.85842 7.90478,-7.85842 7.34588,1.77284 c 6.59432,1.59145 7.92392,2.34664 12.99556,7.38121 9.17557,9.10849 9.70194,16.1265 1.93598,25.81176 -2.11535,2.63814 -9.45262,10.30912 -16.30504,17.04662 -11.06322,10.87767 -12.84106,12.24751 -15.86978,12.22776 -1.87596,-0.0122 -4.41135,-0.79973 -5.63421,-1.75 z m 23.45275,-16.77062 c 19.70463,-20.17147 20.76858,-23.23803 11.60044,-33.43521 -3.67297,-4.08523 -5.6534,-5.33289 -11.40576,-7.18556 l -6.96103,-2.24195 -6.4842,6.42657 -6.4842,6.42656 7.00269,7.04974 c 3.85148,3.87736 7.00269,7.91239 7.00269,8.96675 0,1.07626 -4.16644,6.15774 -9.5,11.58641 -5.225,5.31817 -9.5,10.34674 -9.5,11.17461 0,2.77555 4.01232,6.77377 6.82258,6.7986 2.15076,0.019 5.67309,-3.04298 17.90679,-15.56652 z m -94.67406,-33.70714 c -1.67533,-1.7875 -3.04814,-4.23186 -3.05068,-5.43191 -0.004,-2.07759 4.57008,-6.31809 6.81571,-6.31809 1.19833,0 7.17966,7.3354 7.17966,8.80501 0,1.1628 -5.70725,6.19499 -7.02604,6.19499 -0.47992,0 -2.24331,-1.4625 -3.91865,-3.25 z m 5.73999,-5.63268 c -0.67615,-0.88953 -1.34582,-1.79395 -1.48817,-2.00982 -0.14234,-0.21588 -0.95603,0.18615 -1.80819,0.89338 -1.39474,1.15753 -1.382,1.47086 0.12762,3.13897 1.28346,1.4182 1.99631,1.5881 3.03756,0.72394 1.08672,-0.90189 1.11312,-1.45465 0.13118,-2.74647 z m 2.44826,-2.94352 -4.06951,-4.8262 15.54004,-14.4238 c 8.54703,-7.93309 21.89537,-20.2241 29.66298,-27.31336 7.76761,-7.08925 21.55991,-19.68925 30.64955,-28 9.08964,-8.31074 17.53861,-15.97807 18.77549,-17.0385 l 2.24887,-1.92805 3.97451,3.881 c 2.18598,2.13455 3.98484,4.35218 3.99746,4.92806 0.026,1.18554 -0.60993,1.78311 -42.48879,39.926 -16.83527,15.33342 -30.43329,28.05526 -30.2178,28.27074 0.21548,0.21548 2.81995,-0.17879 5.78771,-0.87616 3.2879,-0.7726 12.03734,-1.25344 22.39593,-1.23081 15.06934,0.0329 18.22711,0.34423 27.80504,2.74118 9.5388,2.38716 22.68587,7.13941 26.53449,9.59138 1.08635,0.69211 0.94729,1.62226 -0.73571,4.92122 -1.14138,2.23729 -2.52787,4.34754 -3.08108,4.68945 -0.55322,0.3419 -5.12721,-1.02728 -10.16444,-3.04264 -27.72398,-11.09217 -62.26941,-10.22108 -87.07506,2.19566 -2.59421,1.29857 -4.88627,2.36103 -5.09346,2.36103 -0.20719,0 -2.20799,-2.17179 -4.44622,-4.8262 z m 17.90186,-4.72326 c 12.41039,-4.22104 22.46213,-5.78156 37.35458,-5.79923 16.39244,-0.0194 27.64368,1.86721 40.97477,6.87082 8.66106,3.25079 10.45081,3.28022 10.50992,0.17284 0.0285,-1.5013 -11.4348,-5.91406 -22.98469,-8.84783 -14.32383,-3.63838 -28.9846,-4.62665 -41.5,-2.7975 -4.95,0.72345 -10.8,1.34574 -13,1.38286 -3.59846,0.0607 -4.03067,-0.19717 -4.30547,-2.56904 -0.26798,-2.31287 2.98526,-5.61862 26.5,-26.92773 14.74301,-13.36015 30.95632,-28.202 36.02958,-32.9819 8.94985,-8.43232 9.16729,-8.74214 7.31301,-10.42024 -1.14699,-1.03801 -2.43607,-1.41289 -3.22411,-0.93761 -0.72215,0.43555 -8.73801,7.61683 -17.81301,15.9584 -9.075,8.34158 -22.85954,20.96681 -30.63232,28.05606 -7.77278,7.08926 -20.41359,18.73956 -28.09068,25.88956 l -13.95836,13 1.99046,2.69823 c 1.9333,2.62073 2.07782,2.65305 5.03217,1.12529 1.67294,-0.86511 6.0848,-2.60795 9.80415,-3.87298 z m -24.25737,-11.95018 c -3.19675,-1.7374 -5.33571,-6.51454 -4.33236,-9.67583 0.83553,-2.63251 36.7847,-39.98255 42.17296,-43.81635 3.32005,-2.36225 4.34996,-2.51679 18.64277,-2.7973 l 15.12858,-0.29692 -4.21645,3.79302 c -2.31904,2.08616 -10.62038,9.41802 -18.4474,16.29302 -7.82703,6.875 -19.65463,17.75948 -26.28355,24.18773 -14.19528,13.76556 -17.09388,15.34023 -22.66455,12.31263 z m 8.61195,-3.46372 c 1.65,-1.07259 7.5,-6.58213 13,-12.24341 5.5,-5.66128 16.93729,-16.36823 25.4162,-23.79323 l 15.4162,-13.5 -7.9162,-0.31419 c -4.35391,-0.1728 -9.4912,0.14956 -11.4162,0.71637 -4.59736,1.35366 -45,41.60333 -45,44.82962 0,2.10799 4.24825,6.27424 6.38486,6.26161 0.61333,-0.004 2.46514,-0.88417 4.11514,-1.95677 z m 108.5,4.30932 c -0.825,-0.3137 -7.0125,-6.02562 -13.75,-12.69316 l -12.25,-12.12279 0,10.235 0,10.23499 -24.2,0 c -14.62377,0 -23.82407,-0.3613 -23.25,-0.91304 0.5225,-0.50217 11.75,-10.62305 24.95,-22.49083 l 24,-21.57778 18.25,18.29501 c 17.6084,17.65182 18.25,18.43638 18.25,22.31651 0,2.90241 -0.6395,4.62228 -2.29807,6.18043 -2.41057,2.26461 -7.15425,3.5044 -9.70193,2.53566 z m 6.12215,-3.41133 c 2.89006,-1.54671 3.88889,-4.95459 2.32561,-7.93463 -0.7213,-1.375 -8.27545,-9.42794 -16.787,-17.89543 l -15.47553,-15.39543 -2.39491,1.89543 c -3.64333,2.88349 -38.79032,34.63125 -38.79032,35.03874 0,0.19618 8.08311,0.35669 17.96247,0.35669 l 17.96248,0 0.28752,-9.25 c 0.27569,-8.86905 0.38495,-9.26378 2.65294,-9.58467 1.88275,-0.26639 4.8596,2.13114 14.58917,11.75 6.72307,6.64657 13.00072,12.08467 13.95034,12.08467 0.94961,0 2.62236,-0.47942 3.71723,-1.06537 z m -66.07721,-58.04256 c -14.17131,-2.72858 -24.35149,-18.10884 -21.06207,-31.82066 2.86969,-11.96223 12.15926,-20.1673 23.66214,-20.89975 8.81167,-0.56108 14.48779,1.24313 20.27204,6.44367 6.64459,5.97406 9.41771,12.62297 8.8877,21.30942 -0.46799,7.66997 -2.5382,12.47536 -7.52122,17.45839 -6.49219,6.49219 -15.31833,9.22645 -24.23859,7.50893 z m 11.83315,-3.44851 c 14.00104,-4.15786 21.35548,-20.06673 15.17686,-32.83006 -4.76923,-9.8519 -16.39243,-15.9315 -26.03563,-13.61813 -9.4738,2.27272 -16.64189,9.17552 -19.1323,18.4242 -3.03913,11.28646 4.45291,23.71784 16.99526,28.19985 4.77656,1.7069 6.74559,1.68026 12.99581,-0.17586 z"
         id="path3125"
         inkscape:connector-curvature="0" />
      <path
         style="fill:#ffffff;fill-opacity:1"
         d="m 229.10855,522.63831 c -8.46531,-8.67689 -16.00281,-17.22421 -16.75,-18.99404 -1.84981,-4.38154 -1.70975,-11.31011 0.28927,-14.30961 4.59381,-6.89298 9.82571,-11.02884 16.44549,-13.00029 3.64228,-1.08472 7.25938,-1.97222 8.03798,-1.97222 0.77861,0 4.99799,3.60347 9.3764,8.00772 l 7.96076,8.00772 -7.70874,7.70874 -7.70873,7.70873 9.47452,9.64347 c 8.5371,8.68933 9.47452,10.01123 9.47452,13.36047 0,5.21557 -4.37541,9.55309 -9.67308,9.58931 -3.63466,0.0248 -4.60016,-0.76639 -19.21839,-15.75 z m 23.89147,10.72384 c 3.77987,-3.77987 2.6561,-6.41156 -7,-16.39296 -6.31354,-6.52624 -9,-10.02879 -9,-11.73401 0,-1.66439 2.04971,-4.4623 6.50099,-8.87401 l 6.50099,-6.44321 -6.19318,-6.24872 c -6.7295,-6.78985 -6.73986,-6.79233 -15.45418,-3.69499 -2.5277,0.89843 -6.13737,3.57965 -9.25,6.87079 -4.51768,4.77678 -5.10419,5.89295 -5.10088,9.70725 0.005,5.80289 1.50346,7.88652 17.67381,24.57635 14.82941,15.3058 17.00306,16.5529 21.32245,12.23351 z m 15.74998,3.91989 c -0.96251,-0.56061 -2.45355,-2.37977 -3.31343,-4.04258 -2.6275,-5.08104 -1.10144,-8.27978 8.86521,-18.5822 l 9.07066,-9.37624 -7.68688,-7.73223 -7.68688,-7.73223 7.7728,-7.72721 c 4.27503,-4.24996 8.50293,-7.7272 9.39533,-7.7272 0.8924,0 4.48244,0.88372 7.97787,1.96382 5.06935,1.56645 7.4197,3.0419 11.61538,7.29161 6.3472,6.42896 7.73608,10.32144 6.1221,17.15785 -1.03353,4.37774 -2.69784,6.50318 -15.26934,19.5 -7.76016,8.02269 -15.23516,15.37125 -16.61109,16.33013 -2.77024,1.93055 -7.55639,2.24637 -10.25173,0.67648 z m 22.97939,-17.46275 c 19.70463,-20.17147 20.76858,-23.23803 11.60044,-33.43521 -3.67297,-4.08523 -5.6534,-5.33289 -11.40576,-7.18556 l -6.96103,-2.24195 -6.4842,6.42657 -6.4842,6.42656 7.00269,7.04974 c 3.85148,3.87736 7.00269,7.91239 7.00269,8.96675 0,1.07626 -4.16644,6.15774 -9.5,11.58641 -5.225,5.31817 -9.5,10.34674 -9.5,11.17461 0,2.77555 4.01232,6.77377 6.82258,6.7986 2.15076,0.019 5.67309,-3.04298 17.90679,-15.56652 z m -94.67406,-33.70714 c -1.67533,-1.7875 -3.04814,-4.23186 -3.05068,-5.43191 -0.004,-2.07759 4.57008,-6.31809 6.81571,-6.31809 1.19833,0 7.17966,7.3354 7.17966,8.80501 0,1.1628 -5.70725,6.19499 -7.02604,6.19499 -0.47992,0 -2.24331,-1.4625 -3.91865,-3.25 z m 5.73999,-5.63268 c -0.67615,-0.88953 -1.34582,-1.79395 -1.48817,-2.00982 -0.14234,-0.21588 -0.95603,0.18615 -1.80819,0.89338 -1.39474,1.15753 -1.382,1.47086 0.12762,3.13897 1.28346,1.4182 1.99631,1.5881 3.03756,0.72394 1.08672,-0.90189 1.11312,-1.45465 0.13118,-2.74647 z m 2.44826,-2.94352 -4.06951,-4.8262 15.54004,-14.4238 c 8.54703,-7.93309 21.89537,-20.2241 29.66298,-27.31336 7.76761,-7.08925 21.55991,-19.68925 30.64955,-28 9.08964,-8.31074 17.53861,-15.97807 18.77549,-17.0385 l 2.24887,-1.92805 3.97451,3.881 c 2.18598,2.13455 3.98484,4.35218 3.99746,4.92806 0.026,1.18554 -0.60993,1.78311 -42.48879,39.926 -16.83527,15.33342 -30.43329,28.05526 -30.2178,28.27074 0.21548,0.21548 2.81995,-0.17879 5.78771,-0.87616 3.2879,-0.7726 12.03734,-1.25344 22.39593,-1.23081 15.06934,0.0329 18.22711,0.34423 27.80504,2.74118 9.5388,2.38716 22.68587,7.13941 26.53449,9.59138 1.08635,0.69211 0.94729,1.62226 -0.73571,4.92122 -1.14138,2.23729 -2.52787,4.34754 -3.08108,4.68945 -0.55322,0.3419 -5.12721,-1.02728 -10.16444,-3.04264 -27.72398,-11.09217 -62.26941,-10.22108 -87.07506,2.19566 -2.59421,1.29857 -4.88627,2.36103 -5.09346,2.36103 -0.20719,0 -2.20799,-2.17179 -4.44622,-4.8262 z m 17.90186,-4.72326 c 12.41039,-4.22104 22.46213,-5.78156 37.35458,-5.79923 16.39244,-0.0194 27.64368,1.86721 40.97477,6.87082 8.66106,3.25079 10.45081,3.28022 10.50992,0.17284 0.0285,-1.5013 -11.4348,-5.91406 -22.98469,-8.84783 -14.32383,-3.63838 -28.9846,-4.62665 -41.5,-2.7975 -4.95,0.72345 -10.8,1.34574 -13,1.38286 -3.59846,0.0607 -4.03067,-0.19717 -4.30547,-2.56904 -0.26798,-2.31287 2.98526,-5.61862 26.5,-26.92773 14.74301,-13.36015 30.95632,-28.202 36.02958,-32.9819 8.94985,-8.43232 9.16729,-8.74214 7.31301,-10.42024 -1.14699,-1.03801 -2.43607,-1.41289 -3.22411,-0.93761 -0.72215,0.43555 -8.73801,7.61683 -17.81301,15.9584 -9.075,8.34158 -22.85954,20.96681 -30.63232,28.05606 -7.77278,7.08926 -20.41359,18.73956 -28.09068,25.88956 l -13.95836,13 1.99046,2.69823 c 1.9333,2.62073 2.07782,2.65305 5.03217,1.12529 1.67294,-0.86511 6.0848,-2.60795 9.80415,-3.87298 z m -24.25737,-11.95018 c -3.26364,-1.77376 -5.33695,-6.56138 -4.43057,-10.23095 0.43846,-1.77514 8.10826,-10.18802 21.36328,-23.43305 23.9448,-23.92673 22.32689,-23.04827 41.65426,-22.61647 l 12.53765,0.28011 -18.19654,16 c -10.0081,8.8 -23.62345,21.23285 -30.25634,27.62855 -15.18663,14.64358 -16.83586,15.54355 -22.67174,12.37181 z m 8.61195,-3.46372 c 1.65,-1.07259 7.5,-6.58213 13,-12.24341 5.5,-5.66128 16.93729,-16.36823 25.4162,-23.79323 l 15.4162,-13.5 -7.9162,-0.31419 c -4.35391,-0.1728 -9.4912,0.14956 -11.4162,0.71637 -4.59736,1.35366 -45,41.60333 -45,44.82962 0,2.10799 4.24825,6.27424 6.38486,6.26161 0.61333,-0.004 2.46514,-0.88417 4.11514,-1.95677 z m 95.33593,-7.73723 -12.83593,-12.7006 0,10.2006 0,10.20059 -24.2,0 c -14.62377,0 -23.82407,-0.3613 -23.25,-0.91304 0.5225,-0.50217 11.75,-10.61641 24.95,-22.47608 l 24,-21.56304 17.35059,17.22608 c 9.54282,9.47434 17.91065,18.50158 18.59518,20.06052 1.71628,3.90864 0.8525,7.23679 -2.64117,10.17652 -5.73316,4.82414 -7.69383,3.91277 -21.96867,-10.21155 z m 19.28622,8.63522 c 2.89006,-1.54671 3.88889,-4.95459 2.32561,-7.93463 -0.7213,-1.375 -8.27545,-9.42794 -16.787,-17.89543 l -15.47553,-15.39543 -2.39491,1.89543 c -3.64333,2.88349 -38.79032,34.63125 -38.79032,35.03874 0,0.19618 8.08311,0.35669 17.96247,0.35669 l 17.96248,0 0.28752,-9.25 c 0.27569,-8.86905 0.38495,-9.26378 2.65294,-9.58467 1.88275,-0.26639 4.8596,2.13114 14.58917,11.75 6.72307,6.64657 13.00072,12.08467 13.95034,12.08467 0.94961,0 2.62236,-0.47942 3.71723,-1.06537 z m -66.40465,-57.98894 c -13.07862,-3.20851 -21.09046,-13.25292 -21.09418,-26.44569 -0.003,-10.94117 5.185,-19.30211 14.93822,-24.07391 13.38719,-6.54974 29.5795,-0.98412 36.05977,12.39446 2.55667,5.27826 3.02706,16.19319 0.93406,21.67364 -4.42891,11.59693 -18.98107,19.36027 -30.83787,16.4515 z m 12.16059,-3.50213 c 14.00104,-4.15786 21.35548,-20.06673 15.17686,-32.83006 -4.76923,-9.8519 -16.39243,-15.9315 -26.03563,-13.61813 -9.4738,2.27272 -16.64189,9.17552 -19.1323,18.4242 -3.03913,11.28646 4.45291,23.71784 16.99526,28.19985 4.77656,1.7069 6.74559,1.68026 12.99581,-0.17586 z"
         id="path3123"
         inkscape:connector-curvature="0" />
      <path
         style="fill:#ffffff;fill-opacity:1"
         d="m 229.78344,523.4516 c -8.09412,-8.21216 -15.62994,-16.42931 -16.74626,-18.26033 -2.26785,-3.71977 -2.74574,-11.57326 -0.92157,-15.14486 0.61358,-1.20134 3.20036,-4.3382 5.74841,-6.9708 3.60857,-3.72832 6.03822,-5.22063 10.98974,-6.75 3.49631,-1.0799 7.10759,-1.96346 8.02505,-1.96346 0.91747,0 5.25047,3.60347 9.62888,8.00772 l 7.96076,8.00772 -7.70874,7.70874 -7.70873,7.70873 9.47452,9.64347 c 8.5371,8.68933 9.47452,10.01123 9.47452,13.36047 0,5.22591 -4.37835,9.55919 -9.67308,9.57348 -3.61237,0.01 -4.65199,-0.82677 -18.5435,-14.92088 z m 23.21658,9.91055 c 3.77987,-3.77987 2.6561,-6.41156 -7,-16.39296 -6.31354,-6.52624 -9,-10.02879 -9,-11.73401 0,-1.66439 2.04971,-4.4623 6.50099,-8.87401 l 6.50099,-6.44321 -6.19318,-6.24872 c -6.7295,-6.78985 -6.73986,-6.79233 -15.45418,-3.69499 -2.5277,0.89843 -6.13737,3.57965 -9.25,6.87079 -4.51768,4.77678 -5.10419,5.89295 -5.10088,9.70725 0.005,5.80289 1.50346,7.88652 17.67381,24.57635 14.82941,15.3058 17.00306,16.5529 21.32245,12.23351 z m 15.36032,3.53983 c -2.85812,-2.00191 -4.73351,-6.9168 -3.90256,-10.22756 0.37638,-1.49961 4.79471,-6.91799 9.81852,-12.04084 l 9.13419,-9.31429 -7.7059,-7.75137 -7.70591,-7.75136 7.7728,-7.72721 c 4.27503,-4.24996 8.50293,-7.7272 9.39533,-7.7272 0.8924,0 4.52228,0.89564 8.06641,1.99031 5.38455,1.66312 7.36245,2.95334 12.03159,7.84845 6.29823,6.60303 7.56387,10.3701 5.74881,17.11075 -0.9177,3.40807 -3.77886,7.01638 -14.20085,17.90923 -17.52843,18.32035 -18.50636,19.14126 -22.80247,19.14126 -1.9609,0 -4.50338,-0.65708 -5.64996,-1.46017 z m 23.36905,-17.08269 c 19.70463,-20.17147 20.76858,-23.23803 11.60044,-33.43521 -3.67297,-4.08523 -5.6534,-5.33289 -11.40576,-7.18556 l -6.96103,-2.24195 -6.4842,6.42657 -6.4842,6.42656 7.00269,7.04974 c 3.85148,3.87736 7.00269,7.91239 7.00269,8.96675 0,1.07626 -4.16644,6.15774 -9.5,11.58641 -5.225,5.31817 -9.5,10.34674 -9.5,11.17461 0,2.77555 4.01232,6.77377 6.82258,6.7986 2.15076,0.019 5.67309,-3.04298 17.90679,-15.56652 z m -94.67406,-33.70714 c -1.67533,-1.7875 -3.04814,-4.23186 -3.05068,-5.43191 -0.004,-2.07759 4.57008,-6.31809 6.81571,-6.31809 1.19833,0 7.17966,7.3354 7.17966,8.80501 0,1.1628 -5.70725,6.19499 -7.02604,6.19499 -0.47992,0 -2.24331,-1.4625 -3.91865,-3.25 z m 5.73999,-5.63268 c -0.67615,-0.88953 -1.34582,-1.79395 -1.48817,-2.00982 -0.14234,-0.21588 -0.95603,0.18615 -1.80819,0.89338 -1.39474,1.15753 -1.382,1.47086 0.12762,3.13897 1.28346,1.4182 1.99631,1.5881 3.03756,0.72394 1.08672,-0.90189 1.11312,-1.45465 0.13118,-2.74647 z m 2.44826,-2.94352 -4.06951,-4.8262 15.54004,-14.4238 c 8.54703,-7.93309 21.89537,-20.2241 29.66298,-27.31336 7.76761,-7.08925 21.55991,-19.68925 30.64955,-28 9.08964,-8.31074 17.53861,-15.97807 18.77549,-17.0385 l 2.24887,-1.92805 3.97451,3.881 c 2.18598,2.13455 3.98484,4.35218 3.99746,4.92806 0.026,1.18554 -0.60993,1.78311 -42.48879,39.926 -16.83527,15.33342 -30.43329,28.05526 -30.2178,28.27074 0.21548,0.21548 2.81995,-0.17879 5.78771,-0.87616 3.2879,-0.7726 12.03734,-1.25344 22.39593,-1.23081 15.06934,0.0329 18.22711,0.34423 27.80504,2.74118 9.5388,2.38716 22.68587,7.13941 26.53449,9.59138 1.08635,0.69211 0.94729,1.62226 -0.73571,4.92122 -1.14138,2.23729 -2.52787,4.34754 -3.08108,4.68945 -0.55322,0.3419 -5.12721,-1.02728 -10.16444,-3.04264 -27.72398,-11.09217 -62.26941,-10.22108 -87.07506,2.19566 -2.59421,1.29857 -4.88627,2.36103 -5.09346,2.36103 -0.20719,0 -2.20799,-2.17179 -4.44622,-4.8262 z m 17.90186,-4.72326 c 12.41039,-4.22104 22.46213,-5.78156 37.35458,-5.79923 16.39244,-0.0194 27.64368,1.86721 40.97477,6.87082 8.66106,3.25079 10.45081,3.28022 10.50992,0.17284 0.0285,-1.5013 -11.4348,-5.91406 -22.98469,-8.84783 -14.32383,-3.63838 -28.9846,-4.62665 -41.5,-2.7975 -4.95,0.72345 -10.8,1.34574 -13,1.38286 -3.59846,0.0607 -4.03067,-0.19717 -4.30547,-2.56904 -0.26798,-2.31287 2.98526,-5.61862 26.5,-26.92773 14.74301,-13.36015 30.95632,-28.202 36.02958,-32.9819 8.94985,-8.43232 9.16729,-8.74214 7.31301,-10.42024 -1.14699,-1.03801 -2.43607,-1.41289 -3.22411,-0.93761 -0.72215,0.43555 -8.73801,7.61683 -17.81301,15.9584 -9.075,8.34158 -22.85954,20.96681 -30.63232,28.05606 -7.77278,7.08926 -20.41359,18.73956 -28.09068,25.88956 l -13.95836,13 1.99046,2.69823 c 1.9333,2.62073 2.07782,2.65305 5.03217,1.12529 1.67294,-0.86511 6.0848,-2.60795 9.80415,-3.87298 z m -23.78842,-11.44212 c -2.89625,-1.16878 -5.357,-4.88076 -5.357,-8.08089 0,-3.94207 3.99219,-8.66973 24.1352,-28.58158 14.57065,-14.40344 19.19119,-18.39213 22.3648,-19.30646 2.38605,-0.68742 9.14704,-1.02875 16.75633,-0.84595 l 12.75634,0.30646 -18.19654,16 c -10.0081,8.8 -23.62345,21.23285 -30.25634,27.62855 -14.79376,14.26476 -16.42546,15.21131 -22.20279,12.87987 z m 8.143,-3.97178 c 1.65,-1.07259 7.5,-6.58213 13,-12.24341 5.5,-5.66128 16.93729,-16.36823 25.4162,-23.79323 l 15.4162,-13.5 -7.9162,-0.31419 c -4.35391,-0.1728 -9.4912,0.14956 -11.4162,0.71637 -4.59736,1.35366 -45,41.60333 -45,44.82962 0,2.10799 4.24825,6.27424 6.38486,6.26161 0.61333,-0.004 2.46514,-0.88417 4.11514,-1.95677 z m 95.33593,-7.73723 -12.83593,-12.7006 0,10.2006 0,10.20059 -24.2,0 c -14.62377,0 -23.82407,-0.3613 -23.25,-0.91304 0.5225,-0.50217 11.75,-10.61641 24.95,-22.47608 l 24,-21.56304 17.3176,17.22608 c 9.52468,9.47434 17.97173,18.4597 18.77122,19.96745 1.90147,3.58597 0.94205,7.13414 -2.77469,10.26158 -5.74389,4.83316 -7.69826,3.92583 -21.9782,-10.20354 z m 19.28622,8.63522 c 2.89006,-1.54671 3.88889,-4.95459 2.32561,-7.93463 -0.7213,-1.375 -8.27545,-9.42794 -16.787,-17.89543 l -15.47553,-15.39543 -2.39491,1.89543 c -3.64333,2.88349 -38.79032,34.63125 -38.79032,35.03874 0,0.19618 8.08311,0.35669 17.96247,0.35669 l 17.96248,0 0.28752,-9.25 c 0.27569,-8.86905 0.38495,-9.26378 2.65294,-9.58467 1.88275,-0.26639 4.8596,2.13114 14.58917,11.75 6.72307,6.64657 13.00072,12.08467 13.95034,12.08467 0.94961,0 2.62236,-0.47942 3.71723,-1.06537 z m -66.62215,-57.81809 c -12.30017,-3.23266 -21.5,-14.65038 -21.5,-26.68321 0,-5.43361 3.15408,-13.32679 7.13045,-17.84419 13.10107,-14.8836 37.70604,-10.58475 45.44623,7.94013 3.50578,8.39053 1.33295,20.71985 -4.96442,28.16964 -5.33757,6.31434 -18.26216,10.48076 -26.11226,8.41763 z m 12.37809,-3.67298 c 14.00104,-4.15786 21.35548,-20.06673 15.17686,-32.83006 -4.76923,-9.8519 -16.39243,-15.9315 -26.03563,-13.61813 -9.4738,2.27272 -16.64189,9.17552 -19.1323,18.4242 -3.03913,11.28646 4.45291,23.71784 16.99526,28.19985 4.77656,1.7069 6.74559,1.68026 12.99581,-0.17586 z"
         id="path3121"
         inkscape:connector-curvature="0" />
    </g>
  </g>
</svg>
