<?xml version="1.0" standalone="no"?>
 <!DOCTYPE svg PUBLIC "-//W3C//DTD SVG 1.1//EN" 
 "http://www.w3.org/Graphics/SVG/1.1/DTD/svg11.dtd"> 
<svg xmlns="http://www.w3.org/2000/svg" version="1.1" 
    width="29.7002cm" height="21.0007cm" viewBox="0 0 116930 82680 ">
<title>SVG Picture created as child-seat-alarm-B.SilkS.svg date 2016/09/09 11:02:14 </title>
  <desc>Picture generated by PCBNEW </desc>
<g style="fill:#000000; fill-opacity:1;stroke:#000000; stroke-opacity:1;
stroke-linecap:round; stroke-linejoin:round; "
 transform="translate(0 0) scale(1 1)">
</g>
<g style="fill:#000000; fill-opacity:0.0; 
stroke:#000000; stroke-width:-0.000393701; stroke-opacity:1; 
stroke-linecap:round; stroke-linejoin:round;">
</g>
<g style="fill:#000000; fill-opacity:0.0; 
stroke:#000000; stroke-width:39.3701; stroke-opacity:1; 
stroke-linecap:round; stroke-linejoin:round;">
<circle cx="72834.6" cy="50393.7" r="1181.1" /> 
<path d="M71653 49212
L74015 51574
" />
<path d="M71653 51574
L74015 49212
" />
<circle cx="72834.6" cy="33070.9" r="1181.1" /> 
<path d="M71653 31889
L74015 34251
" />
<path d="M71653 34251
L74015 31889
" />
<circle cx="44488.2" cy="33070.9" r="1181.1" /> 
<path d="M43307 31889
L45669 34251
" />
<path d="M43307 34251
L45669 31889
" />
<circle cx="44488.2" cy="50393.7" r="1181.1" /> 
<path d="M43307 49212
L45669 51574
" />
<path d="M43307 51574
L45669 49212
" />
<path d="M74803 52362
L74803 31102
" />
<path d="M42519 52362
L74803 52362
" />
<path d="M42519 31102
L42519 52362
" />
<path d="M74803 31102
L42519 31102
" />
</g>
<g style="fill:#000000; fill-opacity:0.0; 
stroke:#000000; stroke-width:59.0551; stroke-opacity:1; 
stroke-linecap:round; stroke-linejoin:round;">
<path d="M57370 40700
L57842 40700
" />
<path d="M57842 40011
L57370 40011
" />
<path d="M59620 40700
L60092 40700
" />
<path d="M60092 40011
L59620 40011
" />
<path d="M62120 40700
L62592 40700
" />
<path d="M62592 40011
L62120 40011
" />
<path d="M48870 40200
L49342 40200
" />
<path d="M49342 39511
L48870 39511
" />
<path d="M56171 40534
L56303 40346
" />
<path d="M56396 40534
L56396 40140
L56246 40140
L56209 40159
L56190 40178
L56171 40215
L56171 40271
L56190 40309
L56209 40328
L56246 40346
L56396 40346
" />
<path d="M55815 40140
L56003 40140
L56021 40328
L56003 40309
L55965 40290
L55871 40290
L55834 40309
L55815 40328
L55796 40365
L55796 40459
L55815 40496
L55834 40515
L55871 40534
L55965 40534
L56003 40515
L56021 40496
" />
<path d="M59921 39784
L60053 39596
" />
<path d="M60146 39784
L60146 39390
L59996 39390
L59959 39409
L59940 39428
L59921 39465
L59921 39521
L59940 39559
L59959 39578
L59996 39596
L60146 39596
" />
<path d="M59584 39390
L59659 39390
L59696 39409
L59715 39428
L59753 39484
L59771 39559
L59771 39709
L59753 39746
L59734 39765
L59696 39784
L59621 39784
L59584 39765
L59565 39746
L59546 39709
L59546 39615
L59565 39578
L59584 39559
L59621 39540
L59696 39540
L59734 39559
L59753 39578
L59771 39615
" />
<path d="M63921 40534
L64053 40346
" />
<path d="M64146 40534
L64146 40140
L63996 40140
L63959 40159
L63940 40178
L63921 40215
L63921 40271
L63940 40309
L63959 40328
L63996 40346
L64146 40346
" />
<path d="M63790 40140
L63528 40140
L63696 40534
" />
<path d="M50109 39284
L50240 39096
" />
<path d="M50334 39284
L50334 38890
L50184 38890
L50146 38909
L50128 38928
L50109 38965
L50109 39021
L50128 39059
L50146 39078
L50184 39096
L50334 39096
" />
<path d="M49734 39284
L49959 39284
" />
<path d="M49846 39284
L49846 38890
L49884 38946
L49921 38984
L49959 39003
" />
<path d="M49396 39021
L49396 39284
" />
<path d="M49490 38871
L49584 39153
L49340 39153
" />
</g> 
</svg>
