<?xml version="1.0" standalone="no"?>
 <!DOCTYPE svg PUBLIC "-//W3C//DTD SVG 1.1//EN" 
 "http://www.w3.org/Graphics/SVG/1.1/DTD/svg11.dtd"> 
<svg xmlns="http://www.w3.org/2000/svg" version="1.1" 
    width="29.7002cm" height="21.0007cm" viewBox="0 0 116930 82680 ">
<title>SVG Picture created as child-seat-alarm-F.SilkS.svg date 2016/09/09 11:02:11 </title>
  <desc>Picture generated by PCBNEW </desc>
<g style="fill:#000000; fill-opacity:1;stroke:#000000; stroke-opacity:1;
stroke-linecap:round; stroke-linejoin:round; "
 transform="translate(0 0) scale(1 1)">
</g>
<g style="fill:#000000; fill-opacity:0.0; 
stroke:#000000; stroke-width:-0.000393701; stroke-opacity:1; 
stroke-linecap:round; stroke-linejoin:round;">
</g>
<g style="fill:#000000; fill-opacity:0.0; 
stroke:#000000; stroke-width:39.3701; stroke-opacity:1; 
stroke-linecap:round; stroke-linejoin:round;">
<circle cx="44095.4" cy="50393.7" r="1181.1" /> 
<path d="M45276 49212
L42914 51574
" />
<path d="M45276 51574
L42914 49212
" />
<circle cx="44095.4" cy="33070.9" r="1181.1" /> 
<path d="M45276 31889
L42914 34251
" />
<path d="M45276 34251
L42914 31889
" />
<circle cx="72441.8" cy="33070.9" r="1181.1" /> 
<path d="M73622 31889
L71260 34251
" />
<path d="M73622 34251
L71260 31889
" />
</g>
<g style="fill:#000000; fill-opacity:0.0; 
stroke:#000000; stroke-width:78.7402; stroke-opacity:1; 
stroke-linecap:round; stroke-linejoin:round;">
<path d="M56323 43106
L56323 45606
" />
<path d="M65823 48356
L62573 48356
" />
<path d="M67323 47356
L62573 47356
" />
<path d="M68323 44856
L65823 44856
" />
<path d="M68323 42856
L65323 42856
" />
<path d="M66323 36356
L66323 40856
" />
<path d="M67323 36356
L67323 40856
" />
<path d="M68323 38856
L68323 40856
" />
<path d="M61323 36106
L61323 39356
" />
<path d="M55323 34606
L55323 37356
" />
<path d="M57573 32606
L57573 34606
" />
<path d="M47573 47856
L47573 50106
" />
<path d="M47573 39606
L47573 41606
" />
<path d="M48823 39606
L48823 41606
" />
<path d="M51573 38856
L46573 38856
" />
</g>
<g style="fill:#000000; fill-opacity:0.0; 
stroke:#000000; stroke-width:118.11; stroke-opacity:1; 
stroke-linecap:round; stroke-linejoin:round;">
<path d="M70779 36873
L71117 36873
" />
<path d="M70948 36873
L70948 36282
L71004 36367
L71061 36423
L71117 36451
" />
<path d="M70554 36339
L70526 36311
L70470 36282
L70329 36282
L70273 36311
L70245 36339
L70217 36395
L70217 36451
L70245 36535
L70582 36873
L70217 36873
" />
<path d="M70048 36282
L69851 36873
L69654 36282
" />
<path d="M69458 36873
L69458 36282
L69317 36282
L69233 36311
L69176 36367
L69148 36423
L69120 36535
L69120 36620
L69148 36732
L69176 36789
L69233 36845
L69317 36873
L69458 36873
" />
<path d="M68530 36817
L68558 36845
L68642 36873
L68698 36873
L68783 36845
L68839 36789
L68867 36732
L68895 36620
L68895 36535
L68867 36423
L68839 36367
L68783 36311
L68698 36282
L68642 36282
L68558 36311
L68530 36339
" />
<path d="M69781 48831
L69781 48381
" />
<path d="M69556 48606
L70006 48606
" />
<path d="M71615 47685
L71587 47601
L71559 47573
L71503 47545
L71419 47545
L71362 47573
L71334 47601
L71306 47657
L71306 47882
L71897 47882
L71897 47685
L71868 47629
L71840 47601
L71784 47573
L71728 47573
L71672 47601
L71644 47629
L71615 47685
L71615 47882
" />
<path d="M71897 47292
L71419 47292
L71362 47264
L71334 47235
L71306 47179
L71306 47067
L71334 47010
L71362 46982
L71419 46954
L71897 46954
" />
<path d="M71897 46729
L71897 46336
L71306 46729
L71306 46336
" />
<path d="M71897 46167
L71897 45773
L71306 46167
L71306 45773
" />
</g>
<g style="fill:#000000; fill-opacity:0.0; 
stroke:#000000; stroke-width:98.4252; stroke-opacity:1; 
stroke-linecap:round; stroke-linejoin:round;">
<path d="M63726 42534
L63726 42140
L63632 42140
L63576 42159
L63539 42196
L63520 42234
L63501 42309
L63501 42365
L63520 42440
L63539 42478
L63576 42515
L63632 42534
L63726 42534
" />
<path d="M63332 42328
L63201 42328
" />
<path d="M63145 42534
L63332 42534
L63332 42140
L63145 42140
" />
<path d="M62789 42534
L62976 42534
L62976 42140
" />
<path d="M62676 42421
L62489 42421
" />
<path d="M62714 42534
L62583 42140
L62451 42534
" />
<path d="M62245 42346
L62245 42534
" />
<path d="M62376 42140
L62245 42346
L62114 42140
" />
<path d="M61983 42328
L61851 42328
" />
<path d="M61795 42534
L61983 42534
L61983 42140
L61795 42140
" />
<path d="M61626 42534
L61626 42140
L61533 42140
L61476 42159
L61439 42196
L61420 42234
L61401 42309
L61401 42365
L61420 42440
L61439 42478
L61476 42515
L61533 42534
L61626 42534
" />
<path d="M63567 38534
L63567 38140
L63342 38534
L63342 38140
" />
<path d="M63079 38140
L63004 38140
L62967 38159
L62929 38196
L62911 38271
L62911 38403
L62929 38478
L62967 38515
L63004 38534
L63079 38534
L63117 38515
L63154 38478
L63173 38403
L63173 38271
L63154 38196
L63117 38159
L63079 38140
" />
<path d="M62442 38534
L62442 38140
L62348 38140
L62292 38159
L62254 38196
L62236 38234
L62217 38309
L62217 38365
L62236 38440
L62254 38478
L62292 38515
L62348 38534
L62442 38534
" />
<path d="M61861 38534
L62048 38534
L62048 38140
" />
<path d="M61655 38346
L61655 38534
" />
<path d="M61786 38140
L61655 38346
L61523 38140
" />
<path d="M63414 41331
L63395 41274
L63395 41181
L63414 41143
L63433 41124
L63470 41106
L63508 41106
L63545 41124
L63564 41143
L63583 41181
L63601 41256
L63620 41293
L63639 41312
L63676 41331
L63714 41331
L63751 41312
L63770 41293
L63789 41256
L63789 41162
L63770 41106
" />
<path d="M63601 40937
L63601 40806
" />
<path d="M63395 40750
L63395 40937
L63789 40937
L63789 40750
" />
<path d="M63395 40393
L63395 40581
L63789 40581
" />
<path d="M63601 40262
L63601 40131
" />
<path d="M63395 40075
L63395 40262
L63789 40262
L63789 40075
" />
<path d="M63433 39681
L63414 39700
L63395 39756
L63395 39793
L63414 39850
L63451 39887
L63489 39906
L63564 39925
L63620 39925
L63695 39906
L63733 39887
L63770 39850
L63789 39793
L63789 39756
L63770 39700
L63751 39681
" />
<path d="M63789 39568
L63789 39343
" />
<path d="M63395 39456
L63789 39456
" />
</g>
<g style="fill:#000000; fill-opacity:0.0; 
stroke:#000000; stroke-width:39.3701; stroke-opacity:1; 
stroke-linecap:round; stroke-linejoin:round;">
<circle cx="72441.8" cy="50393.7" r="1181.1" /> 
<path d="M73622 49212
L71260 51574
" />
<path d="M73622 51574
L71260 49212
" />
<path d="M42126 52362
L42126 31102
" />
<path d="M74410 52362
L42126 52362
" />
<path d="M74410 31102
L74410 52362
" />
<path d="M42126 31102
L74410 31102
" />
</g>
<g style="fill:#000000; fill-opacity:0.0; 
stroke:#000000; stroke-width:59.0551; stroke-opacity:1; 
stroke-linecap:round; stroke-linejoin:round;">
<circle cx="58823.7" cy="48356.3" r="604.152" /> 
<path d="M58423 47756
L59223 47756
" />
<path d="M58823 47456
L59223 47756
" />
<path d="M58423 47756
L58823 47456
" />
<path d="M58423 47456
L59223 47456
" />
<path d="M68823 45356
L68823 37356
" />
<path d="M70823 38356
L70823 45356
" />
<path d="M68823 45356
L70823 45356
" />
<path d="M68823 37356
L69823 37356
" />
<path d="M70323 37246
L70933 37246
" />
<path d="M69823 37356
L69823 38356
" />
<path d="M69823 38356
L70823 38356
" />
<path d="M70933 37246
L70933 37856
" />
<path d="M62073 40856
L62073 38856
" />
<path d="M62073 38856
L63073 38856
" />
<path d="M63073 38856
L63073 40856
" />
<path d="M63183 41966
L63183 41356
" />
<path d="M63073 40856
L62073 40856
" />
<path d="M61963 41356
L61963 41966
" />
<path d="M61963 41966
L63183 41966
" />
<path d="M55839 47377
L57807 47377
" />
<path d="M55842 47433
L57804 47433
" />
<path d="M55849 47488
L56786 47488
" />
<path d="M56861 47488
L57798 47488
" />
<path d="M55858 47543
L56630 47543
" />
<path d="M57016 47543
L57788 47543
" />
<path d="M55871 47598
L56565 47598
" />
<path d="M57082 47598
L57775 47598
" />
<path d="M55887 47653
L56522 47653
" />
<path d="M57124 47653
L57759 47653
" />
<path d="M55907 47708
L56494 47708
" />
<path d="M57152 47708
L57739 47708
" />
<path d="M55931 47763
L56477 47763
" />
<path d="M57169 47763
L57715 47763
" />
<path d="M55959 47818
L56470 47818
" />
<path d="M57177 47818
L57688 47818
" />
<path d="M55991 47874
L56470 47874
" />
<path d="M57176 47874
L57655 47874
" />
<path d="M56028 47929
L56480 47929
" />
<path d="M57166 47929
L57618 47929
" />
<path d="M56072 47984
L56499 47984
" />
<path d="M57147 47984
L57574 47984
" />
<path d="M56122 48039
L56530 48039
" />
<path d="M57117 48039
L57524 48039
" />
<path d="M56181 48094
L56576 48094
" />
<path d="M57070 48094
L57465 48094
" />
<path d="M56252 48149
L56650 48149
" />
<path d="M56996 48149
L57395 48149
" />
<path d="M56338 48204
L57309 48204
" />
<path d="M56452 48259
L57195 48259
" />
<path d="M56637 48314
L57009 48314
" />
<circle cx="56823.7" cy="47840.6" r="354.331" /> 
<circle cx="56823.7" cy="47348.4" r="999.016" /> 
<path d="M50999 46074
L54148 46074
" />
<path d="M51001 46129
L54146 46129
" />
<path d="M51005 46185
L54142 46185
" />
<path d="M51011 46240
L54136 46240
" />
<path d="M51018 46295
L54128 46295
" />
<path d="M51028 46350
L52486 46350
" />
<path d="M52661 46350
L54118 46350
" />
<path d="M51040 46405
L52357 46405
" />
<path d="M52790 46405
L54106 46405
" />
<path d="M51054 46460
L52290 46460
" />
<path d="M52856 46460
L54092 46460
" />
<path d="M51070 46515
L52246 46515
" />
<path d="M52901 46515
L54076 46515
" />
<path d="M51089 46570
L52215 46570
" />
<path d="M52931 46570
L54058 46570
" />
<path d="M51109 46625
L52195 46625
" />
<path d="M52952 46625
L54037 46625
" />
<path d="M51133 46681
L52183 46681
" />
<path d="M52963 46681
L54014 46681
" />
<path d="M51158 46736
L52180 46736
" />
<path d="M52967 46736
L53988 46736
" />
<path d="M51186 46791
L52184 46791
" />
<path d="M52963 46791
L53960 46791
" />
<path d="M51217 46846
L52196 46846
" />
<path d="M52951 46846
L53929 46846
" />
<path d="M51252 46901
L52217 46901
" />
<path d="M52930 46901
L53895 46901
" />
<path d="M51289 46956
L52248 46956
" />
<path d="M52898 46956
L53857 46956
" />
<path d="M51330 47011
L52294 47011
" />
<path d="M52852 47011
L53817 47011
" />
<path d="M51375 47066
L52363 47066
" />
<path d="M52784 47066
L53772 47066
" />
<path d="M51424 47122
L52505 47122
" />
<path d="M52641 47122
L53722 47122
" />
<path d="M51478 47177
L53668 47177
" />
<path d="M51538 47232
L53608 47232
" />
<path d="M51605 47287
L53541 47287
" />
<path d="M51680 47342
L53466 47342
" />
<path d="M51766 47397
L53380 47397
" />
<path d="M51867 47452
L53280 47452
" />
<path d="M51989 47507
L53157 47507
" />
<path d="M52153 47562
L52993 47562
" />
<path d="M52494 47618
L52652 47618
" />
<circle cx="52573.7" cy="46734.3" r="393.701" /> 
<circle cx="52573.7" cy="46045.3" r="1589.57" /> 
<path d="M65743 39687 A946.521 946.521 0.0 0 0 65466.2 39495 " />
<path d="M65466.2 41217.6 A946.521 946.521 0.0 0 0 65743 41025.6 " />
<path d="M65742 39687
L65742 41025
" />
<path d="M64682.7 39496.1 A944.882 944.882 0.0 0 0 64128.8 40356.3 " />
<path d="M64128.8 40356.3 A944.882 944.882 0.0 0 0 64682.7 41216.5 " />
<path d="M62154.4 35775.6 A946.521 946.521 0.0 0 0 62431.2 35967.6 " />
<path d="M62431.2 34245 A946.521 946.521 0.0 0 0 62154.4 34437 " />
<path d="M62154 35775
L62154 34437
" />
<path d="M63214.7 35966.5 A944.882 944.882 0.0 0 0 63768.6 35106.3 " />
<path d="M63768.6 35106.3 A944.882 944.882 0.0 0 0 63214.7 34246.1 " />
<path d="M59493 38025.6 A946.521 946.521 0.0 0 0 59685 37748.8 " />
<path d="M57962.4 37748.8 A946.521 946.521 0.0 0 0 58154.4 38025.6 " />
<path d="M59492 38025
L58154 38025
" />
<path d="M59683.9 36965.3 A944.882 944.882 0.0 0 0 58823.7 36411.4 " />
<path d="M58823.7 36411.4 A944.882 944.882 0.0 0 0 57963.5 36965.3 " />
<path d="M60727 41803
L60227 41803
" />
<path d="M60727 38909
L60227 38909
" />
<path d="M52920 38909
L53420 38909
" />
<path d="M52920 41803
L53420 41803
" />
<path d="M60727 41803
L60727 38909
" />
<path d="M52920 41803
L52920 38909
" />
<path d="M60227 41803
L60227 42171
" />
<path d="M64723 45506
L64723 44156
" />
<path d="M60923 45506
L60923 44156
" />
<path d="M64923 45956
L60723 45956
" />
<path d="M63523 45556
L63523 46056
" />
<path d="M62123 45556
L62123 46056
" />
<path d="M60723 45506
L64923 45506
" />
<path d="M64923 44156
L60723 44156
" />
<path d="M60723 46056
L60723 44156
" />
<path d="M64923 46056
L64923 44156
" />
<path d="M64923 46056
L60723 46056
" />
<path d="M65473 33206
L64123 33206
" />
<path d="M65473 37006
L64123 37006
" />
<path d="M65923 33006
L65923 37206
" />
<path d="M65523 34406
L66023 34406
" />
<path d="M65523 35806
L66023 35806
" />
<path d="M65473 37206
L65473 33006
" />
<path d="M64123 33006
L64123 37206
" />
<path d="M66023 37206
L64123 37206
" />
<path d="M66023 33006
L64123 33006
" />
<path d="M66023 33006
L66023 37206
" />
<path d="M70823 47856
L70823 45856
" />
<path d="M68573 45856
L69073 45856
" />
<path d="M70823 45856
L70573 45856
" />
<path d="M68823 47856
L69073 47856
" />
<path d="M70823 47856
L70573 47856
" />
<path d="M70823 47856
L71073 47856
" />
<path d="M71073 47856
L71073 45856
" />
<path d="M71073 45856
L70823 45856
" />
<path d="M68573 45856
L68573 47856
" />
<path d="M68573 47856
L68823 47856
" />
<path d="M52898 35137
L49749 35137
" />
<path d="M52896 35082
L49751 35082
" />
<path d="M52892 35027
L49755 35027
" />
<path d="M52886 34972
L49761 34972
" />
<path d="M52878 34917
L49768 34917
" />
<path d="M52868 34862
L51411 34862
" />
<path d="M51236 34862
L49778 34862
" />
<path d="M52856 34807
L51540 34807
" />
<path d="M51107 34807
L49790 34807
" />
<path d="M52842 34751
L51606 34751
" />
<path d="M51040 34751
L49804 34751
" />
<path d="M52826 34696
L51651 34696
" />
<path d="M50996 34696
L49820 34696
" />
<path d="M52808 34641
L51681 34641
" />
<path d="M50965 34641
L49839 34641
" />
<path d="M52787 34586
L51702 34586
" />
<path d="M50945 34586
L49859 34586
" />
<path d="M52764 34531
L51713 34531
" />
<path d="M50933 34531
L49883 34531
" />
<path d="M52738 34476
L51717 34476
" />
<path d="M50930 34476
L49908 34476
" />
<path d="M52710 34421
L51713 34421
" />
<path d="M50934 34421
L49936 34421
" />
<path d="M52679 34366
L51701 34366
" />
<path d="M50946 34366
L49967 34366
" />
<path d="M52645 34311
L51680 34311
" />
<path d="M50967 34311
L50002 34311
" />
<path d="M52607 34255
L51648 34255
" />
<path d="M50998 34255
L50039 34255
" />
<path d="M52567 34200
L51602 34200
" />
<path d="M51044 34200
L50080 34200
" />
<path d="M52522 34145
L51534 34145
" />
<path d="M51113 34145
L50125 34145
" />
<path d="M52472 34090
L51391 34090
" />
<path d="M51255 34090
L50174 34090
" />
<path d="M52418 34035
L50228 34035
" />
<path d="M52358 33980
L50288 33980
" />
<path d="M52291 33925
L50355 33925
" />
<path d="M52216 33870
L50430 33870
" />
<path d="M52130 33814
L50516 33814
" />
<path d="M52030 33759
L50617 33759
" />
<path d="M51907 33704
L50739 33704
" />
<path d="M51743 33649
L50903 33649
" />
<path d="M51402 33594
L51244 33594
" />
<circle cx="51323.7" cy="34478.3" r="393.701" /> 
<circle cx="51323.7" cy="35167.3" r="1589.57" /> 
<circle cx="48573.7" cy="45356.3" r="604.152" /> 
<path d="M48173 44756
L48973 44756
" />
<path d="M48573 44456
L48973 44756
" />
<path d="M48173 44756
L48573 44456
" />
<path d="M48173 44456
L48973 44456
" />
<circle cx="50073.7" cy="45356.3" r="604.152" /> 
<path d="M49673 44756
L50473 44756
" />
<path d="M50073 44456
L50473 44756
" />
<path d="M49673 44756
L50073 44456
" />
<path d="M49673 44456
L50473 44456
" />
<circle cx="57823.7" cy="44356.3" r="500" /> 
<path d="M58284 44356
L58678 44356
" />
<circle cx="57823.7" cy="45606.3" r="500" /> 
<path d="M58284 45606
L58678 45606
" />
<circle cx="60573.7" cy="48356.3" r="500" /> 
<path d="M60573 48817
L60573 49211
" />
<circle cx="48573.7" cy="46856.3" r="500" /> 
<path d="M49034 46856
L49428 46856
" />
<circle cx="48573.7" cy="36106.3" r="500" /> 
<path d="M48112 36106
L47718 36106
" />
<circle cx="48573.7" cy="34606.3" r="500" /> 
<path d="M48112 34606
L47718 34606
" />
<circle cx="58823.7" cy="34106.3" r="500" /> 
<path d="M58823 34567
L58823 34961
" />
<circle cx="60073.7" cy="34106.3" r="500" /> 
<path d="M60073 34567
L60073 34961
" />
<circle cx="61323.7" cy="34106.3" r="500" /> 
<path d="M61323 34567
L61323 34961
" />
<circle cx="57823.7" cy="43106.3" r="500" /> 
<path d="M58284 43106
L58678 43106
" />
<circle cx="68310.3" cy="37902.4" r="500" /> 
<path d="M68310 37441
L68310 37047
" />
<path d="M66810 39852
L66810 37852
" />
<path d="M66810 37852
L65810 37852
" />
<path d="M65810 37852
L65810 39852
" />
<path d="M65810 39852
L66810 39852
" />
<path d="M66310 39852
L66310 40352
" />
<path d="M66310 37852
L66310 37352
" />
<path d="M59114 49784
L59114 49390
L59020 49390
L58964 49409
L58926 49446
L58908 49484
L58889 49559
L58889 49615
L58908 49690
L58926 49728
L58964 49765
L59020 49784
L59114 49784
" />
<path d="M58739 49428
L58720 49409
L58683 49390
L58589 49390
L58551 49409
L58533 49428
L58514 49465
L58514 49503
L58533 49559
L58758 49784
L58514 49784
" />
<path d="M71145 41646
L71539 41646
L71539 41496
L71520 41459
L71501 41440
L71464 41421
L71408 41421
L71370 41440
L71351 41459
L71333 41496
L71333 41646
" />
<path d="M71501 41271
L71520 41253
L71539 41215
L71539 41121
L71520 41084
L71501 41065
L71464 41046
L71426 41046
L71370 41065
L71145 41290
L71145 41046
" />
<path d="M61395 40646
L61789 40646
" />
<path d="M61395 40421
L61620 40590
" />
<path d="M61789 40421
L61564 40646
" />
<path d="M61395 40046
L61395 40271
" />
<path d="M61395 40159
L61789 40159
L61733 40196
L61695 40234
L61676 40271
" />
<path d="M56889 48996
L56908 49015
L56964 49034
L57001 49034
L57058 49015
L57095 48978
L57114 48940
L57133 48865
L57133 48809
L57114 48734
L57095 48696
L57058 48659
L57001 48640
L56964 48640
L56908 48659
L56889 48678
" />
<path d="M56514 49034
L56739 49034
" />
<path d="M56626 49034
L56626 48640
L56664 48696
L56701 48734
L56739 48753
" />
<path d="M52639 48246
L52658 48265
L52714 48284
L52751 48284
L52808 48265
L52845 48228
L52864 48190
L52883 48115
L52883 48059
L52864 47984
L52845 47946
L52808 47909
L52751 47890
L52714 47890
L52658 47909
L52639 47928
" />
<path d="M52489 47928
L52470 47909
L52433 47890
L52339 47890
L52301 47909
L52283 47928
L52264 47965
L52264 48003
L52283 48059
L52508 48284
L52264 48284
" />
<path d="M65111 38571
L65148 38553
L65186 38515
L65242 38459
L65279 38440
L65317 38440
" />
<path d="M65298 38534
L65336 38515
L65373 38478
L65392 38403
L65392 38271
L65373 38196
L65336 38159
L65298 38140
L65223 38140
L65186 38159
L65148 38196
L65129 38271
L65129 38403
L65148 38478
L65186 38515
L65223 38534
L65298 38534
" />
<path d="M64754 38534
L64979 38534
" />
<path d="M64867 38534
L64867 38140
L64904 38196
L64942 38234
L64979 38253
" />
<path d="M62861 33321
L62898 33303
L62936 33265
L62992 33209
L63029 33190
L63067 33190
" />
<path d="M63048 33284
L63086 33265
L63123 33228
L63142 33153
L63142 33021
L63123 32946
L63086 32909
L63048 32890
L62973 32890
L62936 32909
L62898 32946
L62879 33021
L62879 33153
L62898 33228
L62936 33265
L62973 33284
L63048 33284
" />
<path d="M62729 32928
L62711 32909
L62673 32890
L62579 32890
L62542 32909
L62523 32928
L62504 32965
L62504 33003
L62523 33059
L62748 33284
L62504 33284
" />
<path d="M58861 36321
L58898 36303
L58936 36265
L58992 36209
L59029 36190
L59067 36190
" />
<path d="M59048 36284
L59086 36265
L59123 36228
L59142 36153
L59142 36021
L59123 35946
L59086 35909
L59048 35890
L58973 35890
L58936 35909
L58898 35946
L58879 36021
L58879 36153
L58898 36228
L58936 36265
L58973 36284
L59048 36284
" />
<path d="M58748 35890
L58504 35890
L58636 36040
L58579 36040
L58542 36059
L58523 36078
L58504 36115
L58504 36209
L58523 36246
L58542 36265
L58579 36284
L58692 36284
L58729 36265
L58748 36246
" />
<path d="M52539 40656
L52220 40656
L52183 40637
L52164 40618
L52145 40581
L52145 40506
L52164 40468
L52183 40450
L52220 40431
L52539 40431
" />
<path d="M52145 40037
L52145 40262
" />
<path d="M52145 40150
L52539 40150
L52483 40187
L52445 40225
L52426 40262
" />
<path d="M62861 46771
L62898 46753
L62936 46715
L62992 46659
L63029 46640
L63067 46640
" />
<path d="M63048 46734
L63086 46715
L63123 46678
L63142 46603
L63142 46471
L63123 46396
L63086 46359
L63048 46340
L62973 46340
L62936 46359
L62898 46396
L62879 46471
L62879 46603
L62898 46678
L62936 46715
L62973 46734
L63048 46734
" />
<path d="M62542 46471
L62542 46734
" />
<path d="M62636 46321
L62729 46603
L62486 46603
" />
<path d="M64861 32821
L64898 32803
L64936 32765
L64992 32709
L65029 32690
L65067 32690
" />
<path d="M65048 32784
L65086 32765
L65123 32728
L65142 32653
L65142 32521
L65123 32446
L65086 32409
L65048 32390
L64973 32390
L64936 32409
L64898 32446
L64879 32521
L64879 32653
L64898 32728
L64936 32765
L64973 32784
L65048 32784
" />
<path d="M64523 32390
L64711 32390
L64729 32578
L64711 32559
L64673 32540
L64579 32540
L64542 32559
L64523 32578
L64504 32615
L64504 32709
L64523 32746
L64542 32765
L64579 32784
L64673 32784
L64711 32765
L64729 32746
" />
<path d="M67895 47146
L68289 47146
L68289 46996
L68270 46959
L68251 46940
L68214 46921
L68158 46921
L68120 46940
L68101 46959
L68083 46996
L68083 47146
" />
<path d="M67895 46546
L67895 46771
" />
<path d="M67895 46659
L68289 46659
L68233 46696
L68195 46734
L68176 46771
" />
<path d="M51389 37496
L51408 37515
L51464 37534
L51501 37534
L51558 37515
L51595 37478
L51614 37440
L51633 37365
L51633 37309
L51614 37234
L51595 37196
L51558 37159
L51501 37140
L51464 37140
L51408 37159
L51389 37178
" />
<path d="M51258 37140
L51014 37140
L51145 37290
L51089 37290
L51051 37309
L51033 37328
L51014 37365
L51014 37459
L51033 37496
L51051 37515
L51089 37534
L51201 37534
L51239 37515
L51258 37496
" />
<path d="M48864 43034
L48864 42640
L48770 42640
L48714 42659
L48676 42696
L48658 42734
L48639 42809
L48639 42865
L48658 42940
L48676 42978
L48714 43015
L48770 43034
L48864 43034
" />
<path d="M48264 43034
L48489 43034
" />
<path d="M48376 43034
L48376 42640
L48414 42696
L48451 42734
L48489 42753
" />
<path d="M50364 43034
L50364 42640
L50270 42640
L50214 42659
L50176 42696
L50158 42734
L50139 42809
L50139 42865
L50158 42940
L50176 42978
L50214 43015
L50270 43034
L50364 43034
" />
<path d="M50008 42640
L49764 42640
L49895 42790
L49839 42790
L49801 42809
L49783 42828
L49764 42865
L49764 42959
L49783 42996
L49801 43015
L49839 43034
L49951 43034
L49989 43015
L50008 42996
" />
<path d="M60139 44534
L60270 44346
" />
<path d="M60364 44534
L60364 44140
L60214 44140
L60176 44159
L60158 44178
L60139 44215
L60139 44271
L60158 44309
L60176 44328
L60214 44346
L60364 44346
" />
<path d="M59801 44271
L59801 44534
" />
<path d="M59895 44121
L59989 44403
L59745 44403
" />
<path d="M60139 45784
L60270 45596
" />
<path d="M60364 45784
L60364 45390
L60214 45390
L60176 45409
L60158 45428
L60139 45465
L60139 45521
L60158 45559
L60176 45578
L60214 45596
L60364 45596
" />
<path d="M60008 45390
L59764 45390
L59895 45540
L59839 45540
L59801 45559
L59783 45578
L59764 45615
L59764 45709
L59783 45746
L59801 45765
L59839 45784
L59951 45784
L59989 45765
L60008 45746
" />
<path d="M60639 50534
L60770 50346
" />
<path d="M60864 50534
L60864 50140
L60714 50140
L60676 50159
L60658 50178
L60639 50215
L60639 50271
L60658 50309
L60676 50328
L60714 50346
L60864 50346
" />
<path d="M60264 50534
L60489 50534
" />
<path d="M60376 50534
L60376 50140
L60414 50196
L60451 50234
L60489 50253
" />
<path d="M49139 48034
L49270 47846
" />
<path d="M49364 48034
L49364 47640
L49214 47640
L49176 47659
L49158 47678
L49139 47715
L49139 47771
L49158 47809
L49176 47828
L49214 47846
L49364 47846
" />
<path d="M48989 47678
L48970 47659
L48933 47640
L48839 47640
L48801 47659
L48783 47678
L48764 47715
L48764 47753
L48783 47809
L49008 48034
L48764 48034
" />
<path d="M46389 36284
L46520 36096
" />
<path d="M46614 36284
L46614 35890
L46464 35890
L46426 35909
L46408 35928
L46389 35965
L46389 36021
L46408 36059
L46426 36078
L46464 36096
L46614 36096
" />
<path d="M46164 36059
L46201 36040
L46220 36021
L46239 35984
L46239 35965
L46220 35928
L46201 35909
L46164 35890
L46089 35890
L46051 35909
L46033 35928
L46014 35965
L46014 35984
L46033 36021
L46051 36040
L46089 36059
L46164 36059
L46201 36078
L46220 36096
L46239 36134
L46239 36209
L46220 36246
L46201 36265
L46164 36284
L46089 36284
L46051 36265
L46033 36246
L46014 36209
L46014 36134
L46033 36096
L46051 36078
L46089 36059
" />
<path d="M46576 34784
L46708 34596
" />
<path d="M46801 34784
L46801 34390
L46651 34390
L46614 34409
L46595 34428
L46576 34465
L46576 34521
L46595 34559
L46614 34578
L46651 34596
L46801 34596
" />
<path d="M46201 34784
L46426 34784
" />
<path d="M46314 34784
L46314 34390
L46351 34446
L46389 34484
L46426 34503
" />
<path d="M45845 34390
L46033 34390
L46051 34578
L46033 34559
L45995 34540
L45901 34540
L45864 34559
L45845 34578
L45826 34615
L45826 34709
L45845 34746
L45864 34765
L45901 34784
L45995 34784
L46033 34765
L46051 34746
" />
<path d="M58645 33109
L58833 33240
" />
<path d="M58645 33334
L59039 33334
L59039 33184
L59020 33146
L59001 33128
L58964 33109
L58908 33109
L58870 33128
L58851 33146
L58833 33184
L58833 33334
" />
<path d="M58645 32734
L58645 32959
" />
<path d="M58645 32846
L59039 32846
L58983 32884
L58945 32921
L58926 32959
" />
<path d="M59001 32584
L59020 32565
L59039 32528
L59039 32434
L59020 32396
L59001 32378
L58964 32359
L58926 32359
L58870 32378
L58645 32603
L58645 32359
" />
<path d="M59895 33109
L60083 33240
" />
<path d="M59895 33334
L60289 33334
L60289 33184
L60270 33146
L60251 33128
L60214 33109
L60158 33109
L60120 33128
L60101 33146
L60083 33184
L60083 33334
" />
<path d="M59895 32734
L59895 32959
" />
<path d="M59895 32846
L60289 32846
L60233 32884
L60195 32921
L60176 32959
" />
<path d="M59895 32359
L59895 32584
" />
<path d="M59895 32471
L60289 32471
L60233 32509
L60195 32546
L60176 32584
" />
<path d="M61145 32921
L61333 33053
" />
<path d="M61145 33146
L61539 33146
L61539 32996
L61520 32959
L61501 32940
L61464 32921
L61408 32921
L61370 32940
L61351 32959
L61333 32996
L61333 33146
" />
<path d="M61145 32734
L61145 32659
L61164 32621
L61183 32603
L61239 32565
L61314 32546
L61464 32546
L61501 32565
L61520 32584
L61539 32621
L61539 32696
L61520 32734
L61501 32753
L61464 32771
L61370 32771
L61333 32753
L61314 32734
L61295 32696
L61295 32621
L61314 32584
L61333 32565
L61370 32546
" />
<path d="M60326 43284
L60458 43096
" />
<path d="M60551 43284
L60551 42890
L60401 42890
L60364 42909
L60345 42928
L60326 42965
L60326 43021
L60345 43059
L60364 43078
L60401 43096
L60551 43096
" />
<path d="M59951 43284
L60176 43284
" />
<path d="M60064 43284
L60064 42890
L60101 42946
L60139 42984
L60176 43003
" />
<path d="M59820 42890
L59576 42890
L59708 43040
L59651 43040
L59614 43059
L59595 43078
L59576 43115
L59576 43209
L59595 43246
L59614 43265
L59651 43284
L59764 43284
L59801 43265
L59820 43246
" />
<path d="M69132 37655
L69319 37786
" />
<path d="M69132 37880
L69525 37880
L69525 37730
L69507 37692
L69488 37674
L69450 37655
L69394 37655
L69357 37674
L69338 37692
L69319 37730
L69319 37880
" />
<path d="M69132 37280
L69132 37505
" />
<path d="M69132 37392
L69525 37392
L69469 37430
L69432 37467
L69413 37505
" />
<path d="M69525 36943
L69525 37018
L69507 37055
L69488 37074
L69432 37111
L69357 37130
L69207 37130
L69169 37111
L69150 37093
L69132 37055
L69132 36980
L69150 36943
L69169 36924
L69207 36905
L69300 36905
L69338 36924
L69357 36943
L69375 36980
L69375 37055
L69357 37093
L69338 37111
L69300 37130
" />
<path d="M67510 39007
L67697 39138
" />
<path d="M67510 39232
L67903 39232
L67903 39082
L67885 39044
L67866 39026
L67828 39007
L67772 39007
L67735 39026
L67716 39044
L67697 39082
L67697 39232
" />
<path d="M67510 38632
L67510 38857
" />
<path d="M67510 38744
L67903 38744
L67847 38782
L67810 38819
L67791 38857
" />
<path d="M67903 38388
L67903 38351
L67885 38313
L67866 38295
L67828 38276
L67753 38257
L67660 38257
L67585 38276
L67547 38295
L67528 38313
L67510 38351
L67510 38388
L67528 38426
L67547 38445
L67585 38463
L67660 38482
L67753 38482
L67828 38463
L67866 38445
L67885 38426
L67903 38388
" />
</g> 
</svg>
